<svg width="1200" height="630" xmlns="http://www.w3.org/2000/svg">
  <defs>
    <linearGradient id="bg" x1="0%" y1="0%" x2="100%" y2="100%">
      <stop offset="0%" style="stop-color:#0f0c29"/>
      <stop offset="50%" style="stop-color:#302b63"/>
      <stop offset="100%" style="stop-color:#24243e"/>
    </linearGradient>
    <filter id="glow">
      <feGaussianBlur stdDeviation="4" result="blur"/>
      <feMerge>
        <feMergeNode in="blur"/>
        <feMergeNode in="SourceGraphic"/>
      </feMerge>
    </filter>
  </defs>

  <!-- Background -->
  <rect width="1200" height="630" fill="url(#bg)"/>

  <!-- Stars (decorative dots) -->
  <circle cx="534" cy="536" r="1.4813945401103963" fill="white" opacity="0.5636076201453801"/>
  <circle cx="981" cy="506" r="1.507423171245995" fill="white" opacity="0.4079367587894991"/>
  <circle cx="588" cy="390" r="1.6321745754088846" fill="white" opacity="0.5642781047436093"/>
  <circle cx="736" cy="469" r="1.2827770678449708" fill="white" opacity="0.5942074941252348"/>
  <circle cx="894" cy="511" r="1.354962506056892" fill="white" opacity="0.7015582547402943"/>
  <circle cx="983" cy="68" r="1.4633490617723426" fill="white" opacity="0.7677748270354186"/>
  <circle cx="756" cy="308" r="1.1784679329267607" fill="white" opacity="0.45883996337593513"/>
  <circle cx="1128" cy="603" r="0.9761525984050161" fill="white" opacity="0.6025595096250356"/>
  <circle cx="579" cy="385" r="1.4738173345028103" fill="white" opacity="0.6635430635835708"/>
  <circle cx="234" cy="106" r="0.7590425981494198" fill="white" opacity="0.46066773731697036"/>
  <circle cx="298" cy="435" r="1.8457000999726991" fill="white" opacity="0.7407064739910942"/>
  <circle cx="819" cy="424" r="0.8264536637487994" fill="white" opacity="0.5188899468240491"/>
  <circle cx="528" cy="229" r="1.4934459657306707" fill="white" opacity="0.7767726065366908"/>
  <circle cx="680" cy="395" r="0.6884665016365352" fill="white" opacity="0.5903987216051427"/>
  <circle cx="1015" cy="557" r="1.168787768655417" fill="white" opacity="0.5801138235084429"/>
  <circle cx="491" cy="434" r="1.4207029827501823" fill="white" opacity="0.3689898167842061"/>
  <circle cx="140" cy="530" r="0.773400766635488" fill="white" opacity="0.5777843158588114"/>
  <circle cx="238" cy="357" r="0.597382372702482" fill="white" opacity="0.4620499387744811"/>
  <circle cx="1044" cy="280" r="0.6125685097756086" fill="white" opacity="0.7347313485247303"/>
  <circle cx="662" cy="261" r="1.7170516535454374" fill="white" opacity="0.37344082003832846"/>
  <circle cx="1001" cy="579" r="1.4327570735150166" fill="white" opacity="0.7327039518119882"/>
  <circle cx="502" cy="294" r="1.3449794440625729" fill="white" opacity="0.39669982411227395"/>
  <circle cx="1035" cy="370" r="1.7203395847680285" fill="white" opacity="0.5646934840386628"/>
  <circle cx="1084" cy="329" r="1.8294913473913192" fill="white" opacity="0.45072626855400705"/>
  <circle cx="943" cy="600" r="0.6532301579590094" fill="white" opacity="0.6844641547115157"/>
  <circle cx="690" cy="526" r="0.9145525696250041" fill="white" opacity="0.6940868589102356"/>
  <circle cx="1003" cy="542" r="1.95398472711393" fill="white" opacity="0.36709045332031864"/>
  <circle cx="336" cy="542" r="1.9367165740882122" fill="white" opacity="0.3429142257930594"/>
  <circle cx="786" cy="533" r="0.9348562134905856" fill="white" opacity="0.6190969940149262"/>
  <circle cx="146" cy="261" r="1.2915874623053918" fill="white" opacity="0.3693628673694535"/>
  <circle cx="517" cy="277" r="1.049828397456786" fill="white" opacity="0.5651621500610199"/>
  <circle cx="579" cy="362" r="0.5074711881138261" fill="white" opacity="0.4245717810925104"/>
  <circle cx="445" cy="352" r="0.881770533216274" fill="white" opacity="0.3575605527252471"/>
  <circle cx="304" cy="119" r="1.1428284245289078" fill="white" opacity="0.3695493515915492"/>
  <circle cx="262" cy="159" r="0.701861858233776" fill="white" opacity="0.362320976786195"/>
  <circle cx="979" cy="366" r="1.901749372813655" fill="white" opacity="0.6741627792551004"/>
  <circle cx="417" cy="3" r="0.5696429002956691" fill="white" opacity="0.4715480306822688"/>
  <circle cx="617" cy="291" r="0.936713829495068" fill="white" opacity="0.4280690723935111"/>
  <circle cx="631" cy="341" r="1.367976712329437" fill="white" opacity="0.33127926931500346"/>
  <circle cx="520" cy="480" r="1.0735567456922563" fill="white" opacity="0.3389703328848112"/>

  <!-- Sign 1 symbol -->
  <text x="300" y="300" text-anchor="middle" font-size="140" fill="#7FDBFF" filter="url(#glow)" font-family="serif">♒</text>
  <text x="300" y="370" text-anchor="middle" font-size="32" fill="white" font-family="sans-serif" font-weight="bold">Aquarius</text>

  <!-- X between signs -->
  <text x="600" y="290" text-anchor="middle" font-size="60" fill="#a78bfa" font-family="sans-serif">×</text>

  <!-- Sign 2 symbol -->
  <text x="900" y="300" text-anchor="middle" font-size="140" fill="#7FDBFF" filter="url(#glow)" font-family="serif">♒</text>
  <text x="900" y="370" text-anchor="middle" font-size="32" fill="white" font-family="sans-serif" font-weight="bold">Aquarius</text>

  <!-- Score -->
  <text x="600" y="480" text-anchor="middle" font-size="80" fill="#F97316" font-family="sans-serif" font-weight="900" filter="url(#glow)">75%</text>

  <!-- Tier label -->
  <text x="600" y="530" text-anchor="middle" font-size="24" fill="#F97316" font-family="sans-serif" font-weight="bold" letter-spacing="6">VOLATILE</text>

  <!-- Branding -->
  <text x="600" y="600" text-anchor="middle" font-size="18" fill="#a78bfa" font-family="sans-serif" opacity="0.6">zodiac-toxicity.com</text>
</svg>