<svg width="1200" height="630" xmlns="http://www.w3.org/2000/svg">
  <defs>
    <linearGradient id="bg" x1="0%" y1="0%" x2="100%" y2="100%">
      <stop offset="0%" style="stop-color:#0f0c29"/>
      <stop offset="50%" style="stop-color:#302b63"/>
      <stop offset="100%" style="stop-color:#24243e"/>
    </linearGradient>
    <filter id="glow">
      <feGaussianBlur stdDeviation="4" result="blur"/>
      <feMerge>
        <feMergeNode in="blur"/>
        <feMergeNode in="SourceGraphic"/>
      </feMerge>
    </filter>
  </defs>

  <!-- Background -->
  <rect width="1200" height="630" fill="url(#bg)"/>

  <!-- Stars (decorative dots) -->
  <circle cx="229" cy="466" r="1.5463923649171758" fill="white" opacity="0.5317527815855518"/>
  <circle cx="865" cy="597" r="0.5112962655796132" fill="white" opacity="0.7174282044895646"/>
  <circle cx="463" cy="505" r="1.8529279148487443" fill="white" opacity="0.42352675682185215"/>
  <circle cx="236" cy="149" r="1.5282097396869463" fill="white" opacity="0.7308491533623676"/>
  <circle cx="939" cy="312" r="1.8313533061086396" fill="white" opacity="0.4211734791773051"/>
  <circle cx="263" cy="331" r="1.8398031628163578" fill="white" opacity="0.6096393935581761"/>
  <circle cx="1108" cy="503" r="0.7686997748355726" fill="white" opacity="0.7401632549450543"/>
  <circle cx="525" cy="516" r="0.636113294557926" fill="white" opacity="0.5813464009435272"/>
  <circle cx="361" cy="29" r="1.7836295250605139" fill="white" opacity="0.6201612506223619"/>
  <circle cx="133" cy="39" r="1.3543180134043122" fill="white" opacity="0.5532084585344047"/>
  <circle cx="1011" cy="508" r="0.6390210493336586" fill="white" opacity="0.6255994617187146"/>
  <circle cx="117" cy="591" r="1.6480230391472586" fill="white" opacity="0.4878035263107574"/>
  <circle cx="35" cy="227" r="1.8097156019941811" fill="white" opacity="0.7340032556076155"/>
  <circle cx="222" cy="27" r="0.6001161711745795" fill="white" opacity="0.5767147178547221"/>
  <circle cx="694" cy="591" r="1.0472413108892609" fill="white" opacity="0.7192691136291831"/>
  <circle cx="1171" cy="589" r="1.9714678991954349" fill="white" opacity="0.4892837556957857"/>
  <circle cx="124" cy="591" r="1.0715048095212305" fill="white" opacity="0.43104455614158466"/>
  <circle cx="648" cy="473" r="1.1031624985857684" fill="white" opacity="0.6288393054549812"/>
  <circle cx="1037" cy="443" r="0.6363233615088921" fill="white" opacity="0.31542315743300414"/>
  <circle cx="1175" cy="497" r="1.480557964825608" fill="white" opacity="0.7943644144411895"/>
  <circle cx="953" cy="364" r="0.9858004547506143" fill="white" opacity="0.32175335901101326"/>
  <circle cx="177" cy="625" r="1.117309277906791" fill="white" opacity="0.42283281460446526"/>
  <circle cx="1170" cy="580" r="0.6071687344132302" fill="white" opacity="0.448854178735483"/>
  <circle cx="743" cy="462" r="1.5080856448891369" fill="white" opacity="0.38063943654969"/>
  <circle cx="625" cy="563" r="1.838456903044048" fill="white" opacity="0.6520357433463791"/>
  <circle cx="110" cy="84" r="0.7849530616375847" fill="white" opacity="0.5690644031194834"/>
  <circle cx="452" cy="458" r="1.1831430223289603" fill="white" opacity="0.446193117877685"/>
  <circle cx="957" cy="276" r="0.9508283626059799" fill="white" opacity="0.6550125083438169"/>
  <circle cx="293" cy="574" r="0.7632293071206679" fill="white" opacity="0.6970943723833212"/>
  <circle cx="1141" cy="283" r="1.5070187752931825" fill="white" opacity="0.5743016082310639"/>
  <circle cx="728" cy="548" r="1.4475852664782338" fill="white" opacity="0.7830445372209205"/>
  <circle cx="1068" cy="440" r="1.6033765524822523" fill="white" opacity="0.4898266336744968"/>
  <circle cx="448" cy="362" r="1.2094785650024833" fill="white" opacity="0.7814013904629229"/>
  <circle cx="235" cy="57" r="1.2331116220427645" fill="white" opacity="0.6179480304596882"/>
  <circle cx="192" cy="228" r="1.8118433352704515" fill="white" opacity="0.7135960529018588"/>
  <circle cx="110" cy="454" r="1.0021191800020834" fill="white" opacity="0.5834953955058002"/>
  <circle cx="227" cy="599" r="1.980357512523482" fill="white" opacity="0.37414842652253094"/>
  <circle cx="655" cy="200" r="1.2626935265044086" fill="white" opacity="0.34527716444190304"/>
  <circle cx="460" cy="375" r="0.632491634676585" fill="white" opacity="0.7154494019146418"/>
  <circle cx="509" cy="581" r="0.8269714205946772" fill="white" opacity="0.7270601872019247"/>

  <!-- Sign 1 symbol -->
  <text x="300" y="300" text-anchor="middle" font-size="140" fill="#7FDBFF" filter="url(#glow)" font-family="serif">♒</text>
  <text x="300" y="370" text-anchor="middle" font-size="32" fill="white" font-family="sans-serif" font-weight="bold">Aquarius</text>

  <!-- X between signs -->
  <text x="600" y="290" text-anchor="middle" font-size="60" fill="#a78bfa" font-family="sans-serif">×</text>

  <!-- Sign 2 symbol -->
  <text x="900" y="300" text-anchor="middle" font-size="140" fill="#FF851B" filter="url(#glow)" font-family="serif">♌</text>
  <text x="900" y="370" text-anchor="middle" font-size="32" fill="white" font-family="sans-serif" font-weight="bold">Leo</text>

  <!-- Score -->
  <text x="600" y="480" text-anchor="middle" font-size="80" fill="#F97316" font-family="sans-serif" font-weight="900" filter="url(#glow)">78%</text>

  <!-- Tier label -->
  <text x="600" y="530" text-anchor="middle" font-size="24" fill="#F97316" font-family="sans-serif" font-weight="bold" letter-spacing="6">VOLATILE</text>

  <!-- Branding -->
  <text x="600" y="600" text-anchor="middle" font-size="18" fill="#a78bfa" font-family="sans-serif" opacity="0.6">zodiac-toxicity.com</text>
</svg>