<svg width="1200" height="630" xmlns="http://www.w3.org/2000/svg">
  <defs>
    <linearGradient id="bg" x1="0%" y1="0%" x2="100%" y2="100%">
      <stop offset="0%" style="stop-color:#0f0c29"/>
      <stop offset="50%" style="stop-color:#302b63"/>
      <stop offset="100%" style="stop-color:#24243e"/>
    </linearGradient>
    <filter id="glow">
      <feGaussianBlur stdDeviation="4" result="blur"/>
      <feMerge>
        <feMergeNode in="blur"/>
        <feMergeNode in="SourceGraphic"/>
      </feMerge>
    </filter>
  </defs>

  <!-- Background -->
  <rect width="1200" height="630" fill="url(#bg)"/>

  <!-- Stars (decorative dots) -->
  <circle cx="761" cy="340" r="1.6169159272232583" fill="white" opacity="0.7038720715023612"/>
  <circle cx="186" cy="9" r="1.6211064351729088" fill="white" opacity="0.41243984223010843"/>
  <circle cx="786" cy="602" r="1.188171890123641" fill="white" opacity="0.653606415167569"/>
  <circle cx="732" cy="341" r="0.6912676473835289" fill="white" opacity="0.5798786845625836"/>
  <circle cx="108" cy="476" r="1.2713674304677203" fill="white" opacity="0.5163887128557018"/>
  <circle cx="606" cy="116" r="1.5986240654901036" fill="white" opacity="0.793191683832646"/>
  <circle cx="1165" cy="239" r="1.1081951845525548" fill="white" opacity="0.5404640610265952"/>
  <circle cx="15" cy="203" r="0.7209221937959049" fill="white" opacity="0.30881901098136877"/>
  <circle cx="1097" cy="413" r="1.8732755759081956" fill="white" opacity="0.6212025113799043"/>
  <circle cx="1027" cy="530" r="1.0034646422109097" fill="white" opacity="0.3546334742790279"/>
  <circle cx="875" cy="556" r="1.4178037822264926" fill="white" opacity="0.738293851655627"/>
  <circle cx="278" cy="627" r="1.1120217464709028" fill="white" opacity="0.698253343373209"/>
  <circle cx="694" cy="615" r="1.6670939913284297" fill="white" opacity="0.32549363310264484"/>
  <circle cx="89" cy="402" r="1.4793090387905066" fill="white" opacity="0.7577894169315134"/>
  <circle cx="211" cy="306" r="0.9406170434204946" fill="white" opacity="0.452446238673464"/>
  <circle cx="98" cy="189" r="1.6050702744046084" fill="white" opacity="0.570606009991546"/>
  <circle cx="218" cy="215" r="1.440434309731478" fill="white" opacity="0.3010687689006247"/>
  <circle cx="1064" cy="333" r="1.4631404438249183" fill="white" opacity="0.3083421560721561"/>
  <circle cx="684" cy="482" r="1.9223328163180544" fill="white" opacity="0.7896360514480267"/>
  <circle cx="746" cy="245" r="1.5762437512454834" fill="white" opacity="0.6197648804255395"/>
  <circle cx="48" cy="180" r="0.5366631634181211" fill="white" opacity="0.3792825463409631"/>
  <circle cx="1007" cy="266" r="0.6105418188949817" fill="white" opacity="0.3810986363817662"/>
  <circle cx="602" cy="506" r="1.4572945112030267" fill="white" opacity="0.3088962563587622"/>
  <circle cx="1194" cy="75" r="1.2922462944888085" fill="white" opacity="0.6379589442527465"/>
  <circle cx="421" cy="475" r="1.998270404786859" fill="white" opacity="0.6093189971401021"/>
  <circle cx="330" cy="429" r="0.9003863348412969" fill="white" opacity="0.7305464751748532"/>
  <circle cx="972" cy="488" r="1.1311957333697873" fill="white" opacity="0.5166769364517492"/>
  <circle cx="854" cy="386" r="1.799095385800757" fill="white" opacity="0.36333031528119847"/>
  <circle cx="396" cy="133" r="0.883292163374814" fill="white" opacity="0.7852651095323365"/>
  <circle cx="879" cy="447" r="1.5441537026824457" fill="white" opacity="0.4524731092639718"/>
  <circle cx="330" cy="223" r="1.5233776626433546" fill="white" opacity="0.5037500506292067"/>
  <circle cx="994" cy="40" r="1.9351715784962287" fill="white" opacity="0.55198748095289"/>
  <circle cx="1113" cy="506" r="1.3961642482133856" fill="white" opacity="0.7467729147493383"/>
  <circle cx="56" cy="463" r="1.7476092088897637" fill="white" opacity="0.4149230790380947"/>
  <circle cx="854" cy="193" r="1.7188158321576563" fill="white" opacity="0.30763175572556045"/>
  <circle cx="1126" cy="103" r="1.387873108173413" fill="white" opacity="0.6528877521954788"/>
  <circle cx="64" cy="31" r="0.8673704115981729" fill="white" opacity="0.6065954854212807"/>
  <circle cx="723" cy="109" r="1.2576248437574813" fill="white" opacity="0.44058863607300947"/>
  <circle cx="231" cy="480" r="0.8278313467261856" fill="white" opacity="0.5291072312814946"/>
  <circle cx="687" cy="625" r="0.7955929106875027" fill="white" opacity="0.33983049659254017"/>

  <!-- Sign 1 symbol -->
  <text x="300" y="300" text-anchor="middle" font-size="140" fill="#7FDBFF" filter="url(#glow)" font-family="serif">♒</text>
  <text x="300" y="370" text-anchor="middle" font-size="32" fill="white" font-family="sans-serif" font-weight="bold">Aquarius</text>

  <!-- X between signs -->
  <text x="600" y="290" text-anchor="middle" font-size="60" fill="#a78bfa" font-family="sans-serif">×</text>

  <!-- Sign 2 symbol -->
  <text x="900" y="300" text-anchor="middle" font-size="140" fill="#001F3F" filter="url(#glow)" font-family="serif">♑</text>
  <text x="900" y="370" text-anchor="middle" font-size="32" fill="white" font-family="sans-serif" font-weight="bold">Capricorn</text>

  <!-- Score -->
  <text x="600" y="480" text-anchor="middle" font-size="80" fill="#F97316" font-family="sans-serif" font-weight="900" filter="url(#glow)">83%</text>

  <!-- Tier label -->
  <text x="600" y="530" text-anchor="middle" font-size="24" fill="#F97316" font-family="sans-serif" font-weight="bold" letter-spacing="6">VOLATILE</text>

  <!-- Branding -->
  <text x="600" y="600" text-anchor="middle" font-size="18" fill="#a78bfa" font-family="sans-serif" opacity="0.6">zodiac-toxicity.com</text>
</svg>