<svg width="1200" height="630" xmlns="http://www.w3.org/2000/svg">
  <defs>
    <linearGradient id="bg" x1="0%" y1="0%" x2="100%" y2="100%">
      <stop offset="0%" style="stop-color:#0f0c29"/>
      <stop offset="50%" style="stop-color:#302b63"/>
      <stop offset="100%" style="stop-color:#24243e"/>
    </linearGradient>
    <filter id="glow">
      <feGaussianBlur stdDeviation="4" result="blur"/>
      <feMerge>
        <feMergeNode in="blur"/>
        <feMergeNode in="SourceGraphic"/>
      </feMerge>
    </filter>
  </defs>

  <!-- Background -->
  <rect width="1200" height="630" fill="url(#bg)"/>

  <!-- Stars (decorative dots) -->
  <circle cx="775" cy="618" r="1.020492141238357" fill="white" opacity="0.512558377398364"/>
  <circle cx="227" cy="510" r="1.1593868542915988" fill="white" opacity="0.6695967798652462"/>
  <circle cx="175" cy="136" r="0.9358910344591458" fill="white" opacity="0.5096166067516135"/>
  <circle cx="313" cy="355" r="1.2255090468641607" fill="white" opacity="0.568414997063258"/>
  <circle cx="828" cy="48" r="0.8296571862687869" fill="white" opacity="0.6316550558067475"/>
  <circle cx="928" cy="130" r="0.6914390610857184" fill="white" opacity="0.7109549987488999"/>
  <circle cx="790" cy="532" r="1.323708710514527" fill="white" opacity="0.46936564498530825"/>
  <circle cx="567" cy="333" r="1.725800844617302" fill="white" opacity="0.6189991093101039"/>
  <circle cx="1199" cy="506" r="1.087291002960551" fill="white" opacity="0.5568367817715882"/>
  <circle cx="1088" cy="175" r="1.5770389014807185" fill="white" opacity="0.5448975177507476"/>
  <circle cx="352" cy="315" r="0.9719566003971007" fill="white" opacity="0.711825299751492"/>
  <circle cx="183" cy="598" r="1.4913309493686056" fill="white" opacity="0.7814958974317938"/>
  <circle cx="775" cy="555" r="1.593396066681954" fill="white" opacity="0.3202487896801511"/>
  <circle cx="528" cy="74" r="1.2432301157091676" fill="white" opacity="0.7936938053075353"/>
  <circle cx="624" cy="307" r="1.7738867633863626" fill="white" opacity="0.626893628398083"/>
  <circle cx="785" cy="204" r="0.9788548906996377" fill="white" opacity="0.3829945302076457"/>
  <circle cx="21" cy="444" r="1.8156056967198206" fill="white" opacity="0.3950376029558394"/>
  <circle cx="952" cy="598" r="1.4666909477320729" fill="white" opacity="0.6812779534829778"/>
  <circle cx="1062" cy="288" r="1.5754792914706233" fill="white" opacity="0.47659023982948223"/>
  <circle cx="574" cy="505" r="1.6003510446273874" fill="white" opacity="0.5667127248803396"/>
  <circle cx="849" cy="424" r="0.8159329604389484" fill="white" opacity="0.3801469498510722"/>
  <circle cx="726" cy="39" r="1.2423564044090993" fill="white" opacity="0.3658347199110689"/>
  <circle cx="207" cy="554" r="1.505024683767623" fill="white" opacity="0.31601781016081376"/>
  <circle cx="479" cy="25" r="0.9328207635973178" fill="white" opacity="0.6507677875789548"/>
  <circle cx="483" cy="439" r="0.53687283237838" fill="white" opacity="0.6802790321659162"/>
  <circle cx="1181" cy="138" r="0.860108370769904" fill="white" opacity="0.3315346766908435"/>
  <circle cx="506" cy="79" r="1.4048893161373954" fill="white" opacity="0.6824587151408312"/>
  <circle cx="279" cy="87" r="1.01813559269416" fill="white" opacity="0.6480697742604563"/>
  <circle cx="929" cy="610" r="0.946584849113124" fill="white" opacity="0.6824787419502761"/>
  <circle cx="1171" cy="30" r="0.7127715617546659" fill="white" opacity="0.4727991366578126"/>
  <circle cx="652" cy="321" r="1.0758077653877838" fill="white" opacity="0.37602714162050704"/>
  <circle cx="52" cy="616" r="1.2196743268722754" fill="white" opacity="0.3097904516109237"/>
  <circle cx="694" cy="611" r="1.2315133328512993" fill="white" opacity="0.5889752443254952"/>
  <circle cx="307" cy="596" r="1.7739751487152164" fill="white" opacity="0.37204866781706863"/>
  <circle cx="1113" cy="184" r="0.5767229198475085" fill="white" opacity="0.7261018405373867"/>
  <circle cx="1030" cy="94" r="1.7660362983158622" fill="white" opacity="0.45206478247998394"/>
  <circle cx="748" cy="429" r="1.9478579956694841" fill="white" opacity="0.5769739526608826"/>
  <circle cx="1038" cy="550" r="1.8330283548615895" fill="white" opacity="0.5382127209449948"/>
  <circle cx="195" cy="559" r="1.3706619204804698" fill="white" opacity="0.6421198634887106"/>
  <circle cx="257" cy="473" r="0.8678275563082783" fill="white" opacity="0.7689601098034771"/>

  <!-- Sign 1 symbol -->
  <text x="300" y="300" text-anchor="middle" font-size="140" fill="#7FDBFF" filter="url(#glow)" font-family="serif">♒</text>
  <text x="300" y="370" text-anchor="middle" font-size="32" fill="white" font-family="sans-serif" font-weight="bold">Aquarius</text>

  <!-- X between signs -->
  <text x="600" y="290" text-anchor="middle" font-size="60" fill="#a78bfa" font-family="sans-serif">×</text>

  <!-- Sign 2 symbol -->
  <text x="900" y="300" text-anchor="middle" font-size="140" fill="#3D9970" filter="url(#glow)" font-family="serif">♍</text>
  <text x="900" y="370" text-anchor="middle" font-size="32" fill="white" font-family="sans-serif" font-weight="bold">Virgo</text>

  <!-- Score -->
  <text x="600" y="480" text-anchor="middle" font-size="80" fill="#F97316" font-family="sans-serif" font-weight="900" filter="url(#glow)">83%</text>

  <!-- Tier label -->
  <text x="600" y="530" text-anchor="middle" font-size="24" fill="#F97316" font-family="sans-serif" font-weight="bold" letter-spacing="6">VOLATILE</text>

  <!-- Branding -->
  <text x="600" y="600" text-anchor="middle" font-size="18" fill="#a78bfa" font-family="sans-serif" opacity="0.6">zodiac-toxicity.com</text>
</svg>