<svg width="1200" height="630" xmlns="http://www.w3.org/2000/svg">
  <defs>
    <linearGradient id="bg" x1="0%" y1="0%" x2="100%" y2="100%">
      <stop offset="0%" style="stop-color:#0f0c29"/>
      <stop offset="50%" style="stop-color:#302b63"/>
      <stop offset="100%" style="stop-color:#24243e"/>
    </linearGradient>
    <filter id="glow">
      <feGaussianBlur stdDeviation="4" result="blur"/>
      <feMerge>
        <feMergeNode in="blur"/>
        <feMergeNode in="SourceGraphic"/>
      </feMerge>
    </filter>
  </defs>

  <!-- Background -->
  <rect width="1200" height="630" fill="url(#bg)"/>

  <!-- Stars (decorative dots) -->
  <circle cx="785" cy="519" r="0.5079145658206949" fill="white" opacity="0.5481117056121678"/>
  <circle cx="626" cy="406" r="1.0865415813177426" fill="white" opacity="0.5054039631121537"/>
  <circle cx="854" cy="18" r="1.9301279669902711" fill="white" opacity="0.43036833372435496"/>
  <circle cx="831" cy="68" r="0.9236715248480607" fill="white" opacity="0.48634230157950853"/>
  <circle cx="364" cy="524" r="1.1380004204654939" fill="white" opacity="0.46216510044919845"/>
  <circle cx="706" cy="437" r="1.5749919230848355" fill="white" opacity="0.7622027227352677"/>
  <circle cx="495" cy="177" r="0.704451026656945" fill="white" opacity="0.46676141316861053"/>
  <circle cx="880" cy="350" r="0.6661571556456485" fill="white" opacity="0.45893988388732093"/>
  <circle cx="415" cy="575" r="0.9965621648191867" fill="white" opacity="0.359001840780086"/>
  <circle cx="428" cy="195" r="0.7403499320437222" fill="white" opacity="0.738302786761995"/>
  <circle cx="764" cy="213" r="1.3326262505679933" fill="white" opacity="0.32866446004216254"/>
  <circle cx="66" cy="133" r="1.9654105469053136" fill="white" opacity="0.7463760351435922"/>
  <circle cx="210" cy="490" r="1.3003943063104089" fill="white" opacity="0.7264747252523486"/>
  <circle cx="758" cy="608" r="0.5349479899796905" fill="white" opacity="0.4927896478093626"/>
  <circle cx="949" cy="4" r="1.239984042895325" fill="white" opacity="0.36505342541276853"/>
  <circle cx="1066" cy="523" r="0.9131094415321082" fill="white" opacity="0.5328729566693327"/>
  <circle cx="24" cy="189" r="1.930397522930597" fill="white" opacity="0.4576271004972102"/>
  <circle cx="1176" cy="231" r="0.6373354846555159" fill="white" opacity="0.5911378658479631"/>
  <circle cx="632" cy="401" r="0.5513028222367129" fill="white" opacity="0.361723691796762"/>
  <circle cx="711" cy="39" r="1.6522101634642679" fill="white" opacity="0.41283003853031913"/>
  <circle cx="410" cy="499" r="0.9359751654608082" fill="white" opacity="0.5845419685234154"/>
  <circle cx="726" cy="3" r="1.0796714973776163" fill="white" opacity="0.7107787426331038"/>
  <circle cx="25" cy="469" r="1.114626734031545" fill="white" opacity="0.5228915477602457"/>
  <circle cx="253" cy="303" r="0.6693150374835297" fill="white" opacity="0.5287209077185508"/>
  <circle cx="1027" cy="122" r="1.1397952790586192" fill="white" opacity="0.6993862608054016"/>
  <circle cx="529" cy="170" r="1.983538529662046" fill="white" opacity="0.47738824402895963"/>
  <circle cx="354" cy="19" r="0.8169295449754709" fill="white" opacity="0.42537064822369647"/>
  <circle cx="931" cy="618" r="1.5786837080041962" fill="white" opacity="0.6098787585199643"/>
  <circle cx="185" cy="253" r="0.5229306095248647" fill="white" opacity="0.7291028230103611"/>
  <circle cx="192" cy="225" r="0.7821673622574887" fill="white" opacity="0.5528237650565259"/>
  <circle cx="508" cy="507" r="1.1138268932321238" fill="white" opacity="0.488860760614962"/>
  <circle cx="861" cy="494" r="1.1720353448892686" fill="white" opacity="0.6087093917908407"/>
  <circle cx="900" cy="227" r="0.502605786140604" fill="white" opacity="0.7126646853351102"/>
  <circle cx="1118" cy="45" r="1.290375735212173" fill="white" opacity="0.3997952613264117"/>
  <circle cx="498" cy="188" r="1.2144693800444228" fill="white" opacity="0.43539644706770136"/>
  <circle cx="787" cy="211" r="1.8885916078022107" fill="white" opacity="0.5931797609174405"/>
  <circle cx="838" cy="18" r="1.128932392715002" fill="white" opacity="0.7881226767895038"/>
  <circle cx="1179" cy="218" r="1.2801115779497718" fill="white" opacity="0.7209862971013365"/>
  <circle cx="461" cy="32" r="0.608953026827338" fill="white" opacity="0.7290650347632257"/>
  <circle cx="872" cy="40" r="0.774601253902961" fill="white" opacity="0.34628885768720397"/>

  <!-- Sign 1 symbol -->
  <text x="300" y="300" text-anchor="middle" font-size="140" fill="#FF4136" filter="url(#glow)" font-family="serif">♈</text>
  <text x="300" y="370" text-anchor="middle" font-size="32" fill="white" font-family="sans-serif" font-weight="bold">Aries</text>

  <!-- X between signs -->
  <text x="600" y="290" text-anchor="middle" font-size="60" fill="#a78bfa" font-family="sans-serif">×</text>

  <!-- Sign 2 symbol -->
  <text x="900" y="300" text-anchor="middle" font-size="140" fill="#3D9970" filter="url(#glow)" font-family="serif">♍</text>
  <text x="900" y="370" text-anchor="middle" font-size="32" fill="white" font-family="sans-serif" font-weight="bold">Virgo</text>

  <!-- Score -->
  <text x="600" y="480" text-anchor="middle" font-size="80" fill="#EF4444" font-family="sans-serif" font-weight="900" filter="url(#glow)">86%</text>

  <!-- Tier label -->
  <text x="600" y="530" text-anchor="middle" font-size="24" fill="#EF4444" font-family="sans-serif" font-weight="bold" letter-spacing="6">CATASTROPHIC</text>

  <!-- Branding -->
  <text x="600" y="600" text-anchor="middle" font-size="18" fill="#a78bfa" font-family="sans-serif" opacity="0.6">zodiac-toxicity.com</text>
</svg>