<svg width="1200" height="630" xmlns="http://www.w3.org/2000/svg">
  <defs>
    <linearGradient id="bg" x1="0%" y1="0%" x2="100%" y2="100%">
      <stop offset="0%" style="stop-color:#0f0c29"/>
      <stop offset="50%" style="stop-color:#302b63"/>
      <stop offset="100%" style="stop-color:#24243e"/>
    </linearGradient>
    <filter id="glow">
      <feGaussianBlur stdDeviation="4" result="blur"/>
      <feMerge>
        <feMergeNode in="blur"/>
        <feMergeNode in="SourceGraphic"/>
      </feMerge>
    </filter>
  </defs>

  <!-- Background -->
  <rect width="1200" height="630" fill="url(#bg)"/>

  <!-- Stars (decorative dots) -->
  <circle cx="1029" cy="208" r="0.7388581612445998" fill="white" opacity="0.6392683755691493"/>
  <circle cx="1112" cy="397" r="1.9403340322003566" fill="white" opacity="0.33296525883659817"/>
  <circle cx="653" cy="302" r="1.0418360243959464" fill="white" opacity="0.615048129805178"/>
  <circle cx="899" cy="32" r="0.9914842033153879" fill="white" opacity="0.4646947885373127"/>
  <circle cx="284" cy="419" r="0.7932909091383412" fill="white" opacity="0.5479446471511122"/>
  <circle cx="517" cy="595" r="1.2379525693205233" fill="white" opacity="0.5701504841514009"/>
  <circle cx="950" cy="494" r="0.6703827002884403" fill="white" opacity="0.413242740743175"/>
  <circle cx="25" cy="314" r="0.7694145452742557" fill="white" opacity="0.32017130517598436"/>
  <circle cx="103" cy="444" r="0.598124628748681" fill="white" opacity="0.6545042318276953"/>
  <circle cx="419" cy="174" r="1.8747420836181337" fill="white" opacity="0.636713314113974"/>
  <circle cx="617" cy="395" r="1.7068406224120976" fill="white" opacity="0.5735247540271774"/>
  <circle cx="169" cy="6" r="0.7538605428810156" fill="white" opacity="0.5669601219858782"/>
  <circle cx="829" cy="418" r="0.6559718864019075" fill="white" opacity="0.4030234414769197"/>
  <circle cx="326" cy="582" r="1.6413073697515752" fill="white" opacity="0.46530576230398013"/>
  <circle cx="1046" cy="21" r="0.690026277439567" fill="white" opacity="0.5896579943375524"/>
  <circle cx="489" cy="16" r="1.6312067545137665" fill="white" opacity="0.6425041681356247"/>
  <circle cx="139" cy="520" r="1.6134073925376065" fill="white" opacity="0.5138368487372471"/>
  <circle cx="325" cy="380" r="1.1497343228041457" fill="white" opacity="0.48359730633213677"/>
  <circle cx="844" cy="224" r="0.5303431002845829" fill="white" opacity="0.6089101166281836"/>
  <circle cx="207" cy="164" r="1.5299499787511457" fill="white" opacity="0.5134920657556302"/>
  <circle cx="31" cy="575" r="0.8746432330986944" fill="white" opacity="0.3603946914846893"/>
  <circle cx="926" cy="587" r="0.7236729952384238" fill="white" opacity="0.4192494606819913"/>
  <circle cx="116" cy="18" r="1.613549583616539" fill="white" opacity="0.5865477305009978"/>
  <circle cx="1084" cy="200" r="1.8545241927605935" fill="white" opacity="0.4992007986008848"/>
  <circle cx="808" cy="527" r="1.9063523781560072" fill="white" opacity="0.4813115167834379"/>
  <circle cx="983" cy="104" r="1.8705285321911471" fill="white" opacity="0.7368443556131496"/>
  <circle cx="529" cy="101" r="1.2240239024235509" fill="white" opacity="0.7512570327661412"/>
  <circle cx="1084" cy="353" r="0.7777690791368659" fill="white" opacity="0.5155384306333459"/>
  <circle cx="17" cy="520" r="1.3308268247762236" fill="white" opacity="0.49916714625598296"/>
  <circle cx="272" cy="128" r="0.7287010838475134" fill="white" opacity="0.39775251918659676"/>
  <circle cx="1006" cy="583" r="0.7217264386069191" fill="white" opacity="0.41311977763184987"/>
  <circle cx="699" cy="24" r="1.4523532227791063" fill="white" opacity="0.4823819256754267"/>
  <circle cx="870" cy="554" r="1.3120585956097552" fill="white" opacity="0.3451955489974357"/>
  <circle cx="148" cy="261" r="1.6486200143124465" fill="white" opacity="0.7451615991883955"/>
  <circle cx="253" cy="425" r="1.734664311920721" fill="white" opacity="0.6777887669879196"/>
  <circle cx="661" cy="487" r="1.3861578452871954" fill="white" opacity="0.7783695130429893"/>
  <circle cx="27" cy="44" r="1.297500602819445" fill="white" opacity="0.7096431312031162"/>
  <circle cx="833" cy="613" r="1.6367002493293035" fill="white" opacity="0.6562667106431808"/>
  <circle cx="881" cy="271" r="1.1954293208093434" fill="white" opacity="0.4577990223581312"/>
  <circle cx="13" cy="183" r="1.2526274534342967" fill="white" opacity="0.7274101296575404"/>

  <!-- Sign 1 symbol -->
  <text x="300" y="300" text-anchor="middle" font-size="140" fill="#B10DC9" filter="url(#glow)" font-family="serif">♋</text>
  <text x="300" y="370" text-anchor="middle" font-size="32" fill="white" font-family="sans-serif" font-weight="bold">Cancer</text>

  <!-- X between signs -->
  <text x="600" y="290" text-anchor="middle" font-size="60" fill="#a78bfa" font-family="sans-serif">×</text>

  <!-- Sign 2 symbol -->
  <text x="900" y="300" text-anchor="middle" font-size="140" fill="#001F3F" filter="url(#glow)" font-family="serif">♑</text>
  <text x="900" y="370" text-anchor="middle" font-size="32" fill="white" font-family="sans-serif" font-weight="bold">Capricorn</text>

  <!-- Score -->
  <text x="600" y="480" text-anchor="middle" font-size="80" fill="#F97316" font-family="sans-serif" font-weight="900" filter="url(#glow)">80%</text>

  <!-- Tier label -->
  <text x="600" y="530" text-anchor="middle" font-size="24" fill="#F97316" font-family="sans-serif" font-weight="bold" letter-spacing="6">VOLATILE</text>

  <!-- Branding -->
  <text x="600" y="600" text-anchor="middle" font-size="18" fill="#a78bfa" font-family="sans-serif" opacity="0.6">zodiac-toxicity.com</text>
</svg>