<svg width="1200" height="630" xmlns="http://www.w3.org/2000/svg">
  <defs>
    <linearGradient id="bg" x1="0%" y1="0%" x2="100%" y2="100%">
      <stop offset="0%" style="stop-color:#0f0c29"/>
      <stop offset="50%" style="stop-color:#302b63"/>
      <stop offset="100%" style="stop-color:#24243e"/>
    </linearGradient>
    <filter id="glow">
      <feGaussianBlur stdDeviation="4" result="blur"/>
      <feMerge>
        <feMergeNode in="blur"/>
        <feMergeNode in="SourceGraphic"/>
      </feMerge>
    </filter>
  </defs>

  <!-- Background -->
  <rect width="1200" height="630" fill="url(#bg)"/>

  <!-- Stars (decorative dots) -->
  <circle cx="1169" cy="320" r="1.2826465954479824" fill="white" opacity="0.5171198373789812"/>
  <circle cx="259" cy="392" r="1.9053127076337035" fill="white" opacity="0.7080108777833267"/>
  <circle cx="1198" cy="427" r="0.6198958649693636" fill="white" opacity="0.30581060243551755"/>
  <circle cx="1029" cy="87" r="1.98708892270992" fill="white" opacity="0.3563637471544902"/>
  <circle cx="665" cy="598" r="0.656753907976702" fill="white" opacity="0.329491478328528"/>
  <circle cx="1161" cy="300" r="0.8416768999888774" fill="white" opacity="0.5285500293171275"/>
  <circle cx="1021" cy="420" r="0.8603666383454986" fill="white" opacity="0.36568710300703167"/>
  <circle cx="118" cy="8" r="0.5296725853267128" fill="white" opacity="0.3432647505581767"/>
  <circle cx="85" cy="550" r="1.6343210426741885" fill="white" opacity="0.38959062116588566"/>
  <circle cx="253" cy="586" r="0.966829286864084" fill="white" opacity="0.3843158687607087"/>
  <circle cx="174" cy="437" r="1.7489315133363985" fill="white" opacity="0.39540297565596216"/>
  <circle cx="22" cy="99" r="1.772103779184672" fill="white" opacity="0.69505304279906"/>
  <circle cx="1068" cy="272" r="0.8015692966795811" fill="white" opacity="0.3445805366721626"/>
  <circle cx="846" cy="222" r="1.8663823654675487" fill="white" opacity="0.5900589199628468"/>
  <circle cx="1084" cy="258" r="0.678984802945585" fill="white" opacity="0.5355674540068698"/>
  <circle cx="82" cy="167" r="1.390775347278264" fill="white" opacity="0.7584787018983917"/>
  <circle cx="17" cy="507" r="1.6323369233723029" fill="white" opacity="0.7038700912435385"/>
  <circle cx="924" cy="45" r="1.9812674829094774" fill="white" opacity="0.631686632581528"/>
  <circle cx="357" cy="104" r="1.8295567963946233" fill="white" opacity="0.41860882958440676"/>
  <circle cx="262" cy="465" r="1.8065836421552246" fill="white" opacity="0.5178183226756048"/>
  <circle cx="990" cy="583" r="0.7387661498661195" fill="white" opacity="0.5707566206662841"/>
  <circle cx="840" cy="6" r="1.447850655846394" fill="white" opacity="0.579075156371226"/>
  <circle cx="246" cy="325" r="0.7528907551983697" fill="white" opacity="0.7304328829495466"/>
  <circle cx="185" cy="97" r="1.5969930406316672" fill="white" opacity="0.7806706557589578"/>
  <circle cx="1006" cy="401" r="1.9178073732702703" fill="white" opacity="0.5549039014080874"/>
  <circle cx="1164" cy="86" r="1.3693338591139153" fill="white" opacity="0.4236438472570163"/>
  <circle cx="374" cy="255" r="0.7528252027663951" fill="white" opacity="0.6251273582135266"/>
  <circle cx="213" cy="511" r="1.112513996823493" fill="white" opacity="0.3220358176231183"/>
  <circle cx="481" cy="618" r="1.5283432358959765" fill="white" opacity="0.7047187333877609"/>
  <circle cx="1095" cy="167" r="0.5029700415798248" fill="white" opacity="0.3071479247865275"/>
  <circle cx="1088" cy="221" r="0.9415686680638048" fill="white" opacity="0.763160633206264"/>
  <circle cx="41" cy="548" r="1.1880087200353031" fill="white" opacity="0.33425888621951644"/>
  <circle cx="382" cy="177" r="1.2807757756612173" fill="white" opacity="0.700821864651571"/>
  <circle cx="912" cy="87" r="1.9135518782951157" fill="white" opacity="0.653431129463238"/>
  <circle cx="18" cy="212" r="0.7473310477517913" fill="white" opacity="0.4575244173498665"/>
  <circle cx="550" cy="16" r="1.8110138193617615" fill="white" opacity="0.6258639275440678"/>
  <circle cx="322" cy="506" r="0.6386029040961352" fill="white" opacity="0.5624246692735742"/>
  <circle cx="1006" cy="416" r="1.8543541901514577" fill="white" opacity="0.30932683306120706"/>
  <circle cx="1129" cy="170" r="1.5940455305879726" fill="white" opacity="0.3679831423964258"/>
  <circle cx="1073" cy="292" r="0.9997528986569351" fill="white" opacity="0.3997121372711869"/>

  <!-- Sign 1 symbol -->
  <text x="300" y="300" text-anchor="middle" font-size="140" fill="#B10DC9" filter="url(#glow)" font-family="serif">♋</text>
  <text x="300" y="370" text-anchor="middle" font-size="32" fill="white" font-family="sans-serif" font-weight="bold">Cancer</text>

  <!-- X between signs -->
  <text x="600" y="290" text-anchor="middle" font-size="60" fill="#a78bfa" font-family="sans-serif">×</text>

  <!-- Sign 2 symbol -->
  <text x="900" y="300" text-anchor="middle" font-size="140" fill="#7FDBFF" filter="url(#glow)" font-family="serif">♒</text>
  <text x="900" y="370" text-anchor="middle" font-size="32" fill="white" font-family="sans-serif" font-weight="bold">Aquarius</text>

  <!-- Score -->
  <text x="600" y="480" text-anchor="middle" font-size="80" fill="#EF4444" font-family="sans-serif" font-weight="900" filter="url(#glow)">89%</text>

  <!-- Tier label -->
  <text x="600" y="530" text-anchor="middle" font-size="24" fill="#EF4444" font-family="sans-serif" font-weight="bold" letter-spacing="6">CATASTROPHIC</text>

  <!-- Branding -->
  <text x="600" y="600" text-anchor="middle" font-size="18" fill="#a78bfa" font-family="sans-serif" opacity="0.6">zodiac-toxicity.com</text>
</svg>