<svg width="1200" height="630" xmlns="http://www.w3.org/2000/svg">
  <defs>
    <linearGradient id="bg" x1="0%" y1="0%" x2="100%" y2="100%">
      <stop offset="0%" style="stop-color:#0f0c29"/>
      <stop offset="50%" style="stop-color:#302b63"/>
      <stop offset="100%" style="stop-color:#24243e"/>
    </linearGradient>
    <filter id="glow">
      <feGaussianBlur stdDeviation="4" result="blur"/>
      <feMerge>
        <feMergeNode in="blur"/>
        <feMergeNode in="SourceGraphic"/>
      </feMerge>
    </filter>
  </defs>

  <!-- Background -->
  <rect width="1200" height="630" fill="url(#bg)"/>

  <!-- Stars (decorative dots) -->
  <circle cx="228" cy="123" r="0.8911557051340322" fill="white" opacity="0.5333660739609216"/>
  <circle cx="1147" cy="127" r="0.5595530494629397" fill="white" opacity="0.6959815475603108"/>
  <circle cx="633" cy="280" r="0.6348850517288829" fill="white" opacity="0.6877669350353426"/>
  <circle cx="752" cy="15" r="1.979165557612272" fill="white" opacity="0.3390202351817258"/>
  <circle cx="751" cy="335" r="1.937386667414537" fill="white" opacity="0.7849343610463152"/>
  <circle cx="968" cy="109" r="0.7890521573630112" fill="white" opacity="0.4454478109917605"/>
  <circle cx="1008" cy="626" r="0.8160019715828708" fill="white" opacity="0.7165260862034382"/>
  <circle cx="853" cy="596" r="1.5999415516781328" fill="white" opacity="0.42491604453925075"/>
  <circle cx="411" cy="89" r="1.4187057499048874" fill="white" opacity="0.4715970000733443"/>
  <circle cx="197" cy="506" r="0.8351573713338225" fill="white" opacity="0.49058266779231163"/>
  <circle cx="1023" cy="401" r="0.9254332533710942" fill="white" opacity="0.7669744383696669"/>
  <circle cx="949" cy="140" r="0.9857022094559538" fill="white" opacity="0.5936260095512168"/>
  <circle cx="1000" cy="193" r="1.4409386335497183" fill="white" opacity="0.6851702909931983"/>
  <circle cx="1157" cy="466" r="0.8034707554628255" fill="white" opacity="0.7616115917558831"/>
  <circle cx="1014" cy="109" r="1.4725012749293027" fill="white" opacity="0.6543901585491938"/>
  <circle cx="394" cy="213" r="1.7624331416024552" fill="white" opacity="0.7153432448033618"/>
  <circle cx="1061" cy="96" r="1.2635882998902985" fill="white" opacity="0.5409685771041961"/>
  <circle cx="271" cy="90" r="0.6487265284165753" fill="white" opacity="0.7666455283732756"/>
  <circle cx="142" cy="300" r="0.761439612809381" fill="white" opacity="0.39603925969134535"/>
  <circle cx="1136" cy="334" r="1.4991328387707192" fill="white" opacity="0.7691772355539427"/>
  <circle cx="250" cy="67" r="0.9617047985734497" fill="white" opacity="0.7963304800204004"/>
  <circle cx="121" cy="312" r="0.8276950089833975" fill="white" opacity="0.4492890727978101"/>
  <circle cx="188" cy="528" r="1.5332840635349085" fill="white" opacity="0.5964969243150344"/>
  <circle cx="1121" cy="399" r="1.5749124246684536" fill="white" opacity="0.4084722957171022"/>
  <circle cx="975" cy="511" r="1.3698681974164657" fill="white" opacity="0.5676108970210831"/>
  <circle cx="733" cy="16" r="0.8082696225362052" fill="white" opacity="0.4973700130170173"/>
  <circle cx="782" cy="264" r="1.1216056323858576" fill="white" opacity="0.7565141145178906"/>
  <circle cx="434" cy="572" r="0.9789590056811983" fill="white" opacity="0.3707556375202956"/>
  <circle cx="508" cy="437" r="0.8723991308817249" fill="white" opacity="0.5422859636628827"/>
  <circle cx="84" cy="268" r="1.3930845665799625" fill="white" opacity="0.5564457929808257"/>
  <circle cx="64" cy="241" r="1.1521680358606052" fill="white" opacity="0.7599515735668854"/>
  <circle cx="877" cy="10" r="1.5785142828643899" fill="white" opacity="0.45363293580865643"/>
  <circle cx="766" cy="81" r="1.79588896762681" fill="white" opacity="0.7202751617426917"/>
  <circle cx="118" cy="186" r="1.936200557205464" fill="white" opacity="0.6978129897942317"/>
  <circle cx="882" cy="218" r="1.9630683267832274" fill="white" opacity="0.45885364648169247"/>
  <circle cx="1098" cy="357" r="0.736756680810692" fill="white" opacity="0.46683703198485316"/>
  <circle cx="592" cy="153" r="1.883410395262211" fill="white" opacity="0.6029639295537867"/>
  <circle cx="166" cy="60" r="0.9316801633790689" fill="white" opacity="0.602063393300126"/>
  <circle cx="752" cy="344" r="1.5412325743593627" fill="white" opacity="0.775464450464588"/>
  <circle cx="381" cy="231" r="1.7986635251050107" fill="white" opacity="0.6935974412786265"/>

  <!-- Sign 1 symbol -->
  <text x="300" y="300" text-anchor="middle" font-size="140" fill="#B10DC9" filter="url(#glow)" font-family="serif">♋</text>
  <text x="300" y="370" text-anchor="middle" font-size="32" fill="white" font-family="sans-serif" font-weight="bold">Cancer</text>

  <!-- X between signs -->
  <text x="600" y="290" text-anchor="middle" font-size="60" fill="#a78bfa" font-family="sans-serif">×</text>

  <!-- Sign 2 symbol -->
  <text x="900" y="300" text-anchor="middle" font-size="140" fill="#85144B" filter="url(#glow)" font-family="serif">♏</text>
  <text x="900" y="370" text-anchor="middle" font-size="32" fill="white" font-family="sans-serif" font-weight="bold">Scorpio</text>

  <!-- Score -->
  <text x="600" y="480" text-anchor="middle" font-size="80" fill="#F97316" font-family="sans-serif" font-weight="900" filter="url(#glow)">72%</text>

  <!-- Tier label -->
  <text x="600" y="530" text-anchor="middle" font-size="24" fill="#F97316" font-family="sans-serif" font-weight="bold" letter-spacing="6">VOLATILE</text>

  <!-- Branding -->
  <text x="600" y="600" text-anchor="middle" font-size="18" fill="#a78bfa" font-family="sans-serif" opacity="0.6">zodiac-toxicity.com</text>
</svg>