<svg width="1200" height="630" xmlns="http://www.w3.org/2000/svg">
  <defs>
    <linearGradient id="bg" x1="0%" y1="0%" x2="100%" y2="100%">
      <stop offset="0%" style="stop-color:#0f0c29"/>
      <stop offset="50%" style="stop-color:#302b63"/>
      <stop offset="100%" style="stop-color:#24243e"/>
    </linearGradient>
    <filter id="glow">
      <feGaussianBlur stdDeviation="4" result="blur"/>
      <feMerge>
        <feMergeNode in="blur"/>
        <feMergeNode in="SourceGraphic"/>
      </feMerge>
    </filter>
  </defs>

  <!-- Background -->
  <rect width="1200" height="630" fill="url(#bg)"/>

  <!-- Stars (decorative dots) -->
  <circle cx="758" cy="107" r="1.7074776174144963" fill="white" opacity="0.7399589310638217"/>
  <circle cx="711" cy="485" r="1.5762154272770625" fill="white" opacity="0.6916274743172626"/>
  <circle cx="1022" cy="65" r="1.368450343172047" fill="white" opacity="0.3197241019015551"/>
  <circle cx="886" cy="472" r="1.5558105920707939" fill="white" opacity="0.5733182310717009"/>
  <circle cx="447" cy="159" r="1.7207219262512103" fill="white" opacity="0.7222030213049038"/>
  <circle cx="355" cy="111" r="1.8490214055544831" fill="white" opacity="0.3646436759544857"/>
  <circle cx="897" cy="434" r="0.6947629178703354" fill="white" opacity="0.6485969983081634"/>
  <circle cx="992" cy="269" r="1.8171833814643745" fill="white" opacity="0.7929923084009667"/>
  <circle cx="598" cy="408" r="1.2752907929570398" fill="white" opacity="0.47532816425618235"/>
  <circle cx="815" cy="462" r="1.7067574605748947" fill="white" opacity="0.7806945622478019"/>
  <circle cx="264" cy="61" r="0.8767865977962521" fill="white" opacity="0.41578657528032126"/>
  <circle cx="782" cy="462" r="1.259835233336259" fill="white" opacity="0.5223725495123039"/>
  <circle cx="366" cy="616" r="1.9769836574068307" fill="white" opacity="0.563438016316034"/>
  <circle cx="55" cy="233" r="1.1444683472497665" fill="white" opacity="0.7818809492340173"/>
  <circle cx="778" cy="277" r="0.5879558653340395" fill="white" opacity="0.31186427327531024"/>
  <circle cx="1057" cy="415" r="1.4701462254339939" fill="white" opacity="0.5637723410154282"/>
  <circle cx="822" cy="307" r="0.7790654280295182" fill="white" opacity="0.5732861546220833"/>
  <circle cx="104" cy="444" r="0.5570948726097242" fill="white" opacity="0.6801794348772671"/>
  <circle cx="336" cy="141" r="0.7110857999527755" fill="white" opacity="0.6517803944870801"/>
  <circle cx="813" cy="20" r="0.7593879471483076" fill="white" opacity="0.4098496979742522"/>
  <circle cx="373" cy="274" r="0.6981211912960736" fill="white" opacity="0.3657504461563426"/>
  <circle cx="409" cy="305" r="1.1783857965049438" fill="white" opacity="0.45005655659453453"/>
  <circle cx="31" cy="451" r="0.6307594159656642" fill="white" opacity="0.7967391117167303"/>
  <circle cx="777" cy="28" r="1.930085960811651" fill="white" opacity="0.6604602981147845"/>
  <circle cx="522" cy="239" r="1.0402548886451284" fill="white" opacity="0.7155310340501568"/>
  <circle cx="888" cy="172" r="1.3779382277458658" fill="white" opacity="0.5976335455363004"/>
  <circle cx="279" cy="233" r="1.5771785063736208" fill="white" opacity="0.7506973660659769"/>
  <circle cx="112" cy="359" r="1.8942790161824263" fill="white" opacity="0.701771169685065"/>
  <circle cx="312" cy="548" r="0.5007091064516511" fill="white" opacity="0.3296920430799949"/>
  <circle cx="1177" cy="237" r="0.9017396343251993" fill="white" opacity="0.7474775050674021"/>
  <circle cx="447" cy="88" r="0.7872392480401769" fill="white" opacity="0.3662208318440517"/>
  <circle cx="814" cy="527" r="0.5341088461626398" fill="white" opacity="0.57978052867076"/>
  <circle cx="416" cy="278" r="1.9682528064514089" fill="white" opacity="0.6743138434368038"/>
  <circle cx="604" cy="335" r="1.5146093335493793" fill="white" opacity="0.7880175508533328"/>
  <circle cx="305" cy="244" r="1.4172364017631252" fill="white" opacity="0.32951740867124263"/>
  <circle cx="301" cy="411" r="0.9499703654703344" fill="white" opacity="0.4818722316119125"/>
  <circle cx="582" cy="325" r="1.4675767476352601" fill="white" opacity="0.5353497354888526"/>
  <circle cx="1002" cy="332" r="1.8740192754932028" fill="white" opacity="0.5097121495435251"/>
  <circle cx="174" cy="178" r="1.3173078718062263" fill="white" opacity="0.41750638481645796"/>
  <circle cx="1079" cy="102" r="1.1200776665036607" fill="white" opacity="0.5528987976345825"/>

  <!-- Sign 1 symbol -->
  <text x="300" y="300" text-anchor="middle" font-size="140" fill="#001F3F" filter="url(#glow)" font-family="serif">♑</text>
  <text x="300" y="370" text-anchor="middle" font-size="32" fill="white" font-family="sans-serif" font-weight="bold">Capricorn</text>

  <!-- X between signs -->
  <text x="600" y="290" text-anchor="middle" font-size="60" fill="#a78bfa" font-family="sans-serif">×</text>

  <!-- Sign 2 symbol -->
  <text x="900" y="300" text-anchor="middle" font-size="140" fill="#F012BE" filter="url(#glow)" font-family="serif">♐</text>
  <text x="900" y="370" text-anchor="middle" font-size="32" fill="white" font-family="sans-serif" font-weight="bold">Sagittarius</text>

  <!-- Score -->
  <text x="600" y="480" text-anchor="middle" font-size="80" fill="#EF4444" font-family="sans-serif" font-weight="900" filter="url(#glow)">88%</text>

  <!-- Tier label -->
  <text x="600" y="530" text-anchor="middle" font-size="24" fill="#EF4444" font-family="sans-serif" font-weight="bold" letter-spacing="6">CATASTROPHIC</text>

  <!-- Branding -->
  <text x="600" y="600" text-anchor="middle" font-size="18" fill="#a78bfa" font-family="sans-serif" opacity="0.6">zodiac-toxicity.com</text>
</svg>