<svg width="1200" height="630" xmlns="http://www.w3.org/2000/svg">
  <defs>
    <linearGradient id="bg" x1="0%" y1="0%" x2="100%" y2="100%">
      <stop offset="0%" style="stop-color:#0f0c29"/>
      <stop offset="50%" style="stop-color:#302b63"/>
      <stop offset="100%" style="stop-color:#24243e"/>
    </linearGradient>
    <filter id="glow">
      <feGaussianBlur stdDeviation="4" result="blur"/>
      <feMerge>
        <feMergeNode in="blur"/>
        <feMergeNode in="SourceGraphic"/>
      </feMerge>
    </filter>
  </defs>

  <!-- Background -->
  <rect width="1200" height="630" fill="url(#bg)"/>

  <!-- Stars (decorative dots) -->
  <circle cx="572" cy="499" r="1.4265569776697733" fill="white" opacity="0.6540325689858474"/>
  <circle cx="1025" cy="541" r="0.6074237372589673" fill="white" opacity="0.39240298745083113"/>
  <circle cx="10" cy="199" r="1.5353475016031153" fill="white" opacity="0.6280904456137868"/>
  <circle cx="1139" cy="498" r="1.4942390136606731" fill="white" opacity="0.5813237875468826"/>
  <circle cx="120" cy="525" r="1.054519100150293" fill="white" opacity="0.3828751105429336"/>
  <circle cx="1105" cy="597" r="1.7275579781959145" fill="white" opacity="0.4234706705487567"/>
  <circle cx="1136" cy="253" r="0.5879418744709075" fill="white" opacity="0.5871392357599141"/>
  <circle cx="126" cy="11" r="0.6959745729043256" fill="white" opacity="0.445082022888386"/>
  <circle cx="172" cy="408" r="1.5831098364987333" fill="white" opacity="0.390119850599092"/>
  <circle cx="350" cy="443" r="1.1271622631925924" fill="white" opacity="0.7849335046919637"/>
  <circle cx="436" cy="495" r="1.9137690177426334" fill="white" opacity="0.4982534746009127"/>
  <circle cx="190" cy="282" r="0.5433484966473952" fill="white" opacity="0.3597306143555612"/>
  <circle cx="159" cy="427" r="0.885239566546911" fill="white" opacity="0.3310862594103915"/>
  <circle cx="128" cy="388" r="1.0491756518938073" fill="white" opacity="0.6268295761374476"/>
  <circle cx="1146" cy="289" r="1.3706824334249768" fill="white" opacity="0.4522990867493359"/>
  <circle cx="913" cy="374" r="0.5284844101667535" fill="white" opacity="0.4620965484138545"/>
  <circle cx="973" cy="400" r="0.5883205621593486" fill="white" opacity="0.47468929027466134"/>
  <circle cx="435" cy="66" r="0.7437379535520247" fill="white" opacity="0.5292362022875636"/>
  <circle cx="928" cy="159" r="1.481184088849715" fill="white" opacity="0.44421562441814827"/>
  <circle cx="297" cy="61" r="0.9494733962856796" fill="white" opacity="0.3378006862290075"/>
  <circle cx="338" cy="275" r="1.4642134808450549" fill="white" opacity="0.5540627919419607"/>
  <circle cx="328" cy="568" r="0.6356580337064764" fill="white" opacity="0.4306761919659903"/>
  <circle cx="332" cy="18" r="0.849514451085289" fill="white" opacity="0.6810635206973139"/>
  <circle cx="347" cy="302" r="0.8078042297394126" fill="white" opacity="0.4412134185627954"/>
  <circle cx="1026" cy="499" r="1.9697636217622552" fill="white" opacity="0.3737622426967291"/>
  <circle cx="259" cy="366" r="1.5979286606587486" fill="white" opacity="0.7993538745028281"/>
  <circle cx="56" cy="161" r="0.8179008633428264" fill="white" opacity="0.6173062106595231"/>
  <circle cx="879" cy="346" r="1.653257420963055" fill="white" opacity="0.7178800950320388"/>
  <circle cx="62" cy="571" r="0.8261004370677807" fill="white" opacity="0.5350176963566613"/>
  <circle cx="876" cy="420" r="1.7605135640474703" fill="white" opacity="0.7848612262690484"/>
  <circle cx="660" cy="337" r="0.9666933340514234" fill="white" opacity="0.640909862899412"/>
  <circle cx="461" cy="55" r="1.9983078024771537" fill="white" opacity="0.7133318202724965"/>
  <circle cx="95" cy="518" r="1.513938204189586" fill="white" opacity="0.653455292797439"/>
  <circle cx="166" cy="333" r="1.186210599531185" fill="white" opacity="0.7013582616936185"/>
  <circle cx="447" cy="314" r="0.8737985714745038" fill="white" opacity="0.7766807976157306"/>
  <circle cx="1001" cy="492" r="1.2637725395007282" fill="white" opacity="0.7487964323749718"/>
  <circle cx="724" cy="469" r="1.9094806012596357" fill="white" opacity="0.45279299026611836"/>
  <circle cx="895" cy="112" r="0.7837581580811601" fill="white" opacity="0.5669284691241571"/>
  <circle cx="824" cy="338" r="1.9223560979945122" fill="white" opacity="0.4607396699492207"/>
  <circle cx="346" cy="595" r="1.9429453556908234" fill="white" opacity="0.6905351617296474"/>

  <!-- Sign 1 symbol -->
  <text x="300" y="300" text-anchor="middle" font-size="140" fill="#001F3F" filter="url(#glow)" font-family="serif">♑</text>
  <text x="300" y="370" text-anchor="middle" font-size="32" fill="white" font-family="sans-serif" font-weight="bold">Capricorn</text>

  <!-- X between signs -->
  <text x="600" y="290" text-anchor="middle" font-size="60" fill="#a78bfa" font-family="sans-serif">×</text>

  <!-- Sign 2 symbol -->
  <text x="900" y="300" text-anchor="middle" font-size="140" fill="#FF69B4" filter="url(#glow)" font-family="serif">♎</text>
  <text x="900" y="370" text-anchor="middle" font-size="32" fill="white" font-family="sans-serif" font-weight="bold">Libra</text>

  <!-- Score -->
  <text x="600" y="480" text-anchor="middle" font-size="80" fill="#EF4444" font-family="sans-serif" font-weight="900" filter="url(#glow)">88%</text>

  <!-- Tier label -->
  <text x="600" y="530" text-anchor="middle" font-size="24" fill="#EF4444" font-family="sans-serif" font-weight="bold" letter-spacing="6">CATASTROPHIC</text>

  <!-- Branding -->
  <text x="600" y="600" text-anchor="middle" font-size="18" fill="#a78bfa" font-family="sans-serif" opacity="0.6">zodiac-toxicity.com</text>
</svg>