<svg width="1200" height="630" xmlns="http://www.w3.org/2000/svg">
  <defs>
    <linearGradient id="bg" x1="0%" y1="0%" x2="100%" y2="100%">
      <stop offset="0%" style="stop-color:#0f0c29"/>
      <stop offset="50%" style="stop-color:#302b63"/>
      <stop offset="100%" style="stop-color:#24243e"/>
    </linearGradient>
    <filter id="glow">
      <feGaussianBlur stdDeviation="4" result="blur"/>
      <feMerge>
        <feMergeNode in="blur"/>
        <feMergeNode in="SourceGraphic"/>
      </feMerge>
    </filter>
  </defs>

  <!-- Background -->
  <rect width="1200" height="630" fill="url(#bg)"/>

  <!-- Stars (decorative dots) -->
  <circle cx="226" cy="339" r="1.7163444987009269" fill="white" opacity="0.7953799088917449"/>
  <circle cx="546" cy="586" r="1.3844448412795072" fill="white" opacity="0.4698864210221024"/>
  <circle cx="230" cy="588" r="0.6874688428967808" fill="white" opacity="0.5978714351661801"/>
  <circle cx="94" cy="362" r="0.5543786684908656" fill="white" opacity="0.3863442249501228"/>
  <circle cx="681" cy="167" r="1.154769014798106" fill="white" opacity="0.4896441156318849"/>
  <circle cx="1109" cy="191" r="1.6851736459926792" fill="white" opacity="0.7084777438230212"/>
  <circle cx="696" cy="151" r="1.1946082484616076" fill="white" opacity="0.6297492198539495"/>
  <circle cx="144" cy="410" r="1.1351880124553742" fill="white" opacity="0.5143311890028472"/>
  <circle cx="46" cy="37" r="0.772693066024667" fill="white" opacity="0.30976622960888084"/>
  <circle cx="49" cy="209" r="1.1973209070480098" fill="white" opacity="0.5119170014802282"/>
  <circle cx="553" cy="560" r="1.6183277669756284" fill="white" opacity="0.5931914802262219"/>
  <circle cx="952" cy="356" r="1.34884526618798" fill="white" opacity="0.35053449277529886"/>
  <circle cx="1163" cy="292" r="1.668459526403064" fill="white" opacity="0.46309689780072244"/>
  <circle cx="517" cy="610" r="1.5131218842254448" fill="white" opacity="0.3947922701914955"/>
  <circle cx="1099" cy="75" r="0.7092317656505307" fill="white" opacity="0.427747743488919"/>
  <circle cx="591" cy="571" r="0.700946218488937" fill="white" opacity="0.7507565006868628"/>
  <circle cx="691" cy="322" r="1.1128252993490082" fill="white" opacity="0.40825937169274434"/>
  <circle cx="294" cy="372" r="0.8480424715320631" fill="white" opacity="0.5994814639636388"/>
  <circle cx="633" cy="601" r="1.0569163871139682" fill="white" opacity="0.522019484964525"/>
  <circle cx="166" cy="164" r="1.3004419649082017" fill="white" opacity="0.5925610764955462"/>
  <circle cx="315" cy="130" r="1.3740927371034537" fill="white" opacity="0.6171406992925823"/>
  <circle cx="28" cy="108" r="1.928235146617672" fill="white" opacity="0.4065983123424085"/>
  <circle cx="108" cy="382" r="1.0251385866946348" fill="white" opacity="0.4968645245933393"/>
  <circle cx="679" cy="516" r="1.2115064069769357" fill="white" opacity="0.6976283900040963"/>
  <circle cx="784" cy="19" r="1.2761814255280328" fill="white" opacity="0.5489839188936513"/>
  <circle cx="1019" cy="623" r="0.6746043369184127" fill="white" opacity="0.7171139126376347"/>
  <circle cx="73" cy="25" r="1.1445994529101189" fill="white" opacity="0.5644278341744727"/>
  <circle cx="183" cy="618" r="0.8808348079275958" fill="white" opacity="0.5031544343272583"/>
  <circle cx="341" cy="203" r="0.6127103631471209" fill="white" opacity="0.5480437306475611"/>
  <circle cx="822" cy="45" r="1.5522627932807591" fill="white" opacity="0.6706140583443848"/>
  <circle cx="446" cy="108" r="1.145437499280063" fill="white" opacity="0.7496447230045884"/>
  <circle cx="849" cy="87" r="1.5086066532239706" fill="white" opacity="0.7991076851341345"/>
  <circle cx="682" cy="278" r="1.680785148250234" fill="white" opacity="0.7158026232279853"/>
  <circle cx="20" cy="61" r="1.7140625396611924" fill="white" opacity="0.5085774384892161"/>
  <circle cx="170" cy="142" r="1.9802658950007883" fill="white" opacity="0.35207591411694766"/>
  <circle cx="979" cy="614" r="1.7849177623714279" fill="white" opacity="0.519007451712771"/>
  <circle cx="894" cy="280" r="1.6247073620782735" fill="white" opacity="0.67049981586665"/>
  <circle cx="1163" cy="213" r="1.9723423722458495" fill="white" opacity="0.35079696875771976"/>
  <circle cx="152" cy="229" r="1.1328323608328668" fill="white" opacity="0.4994193399825508"/>
  <circle cx="1068" cy="357" r="1.821352286821794" fill="white" opacity="0.3841728662016613"/>

  <!-- Sign 1 symbol -->
  <text x="300" y="300" text-anchor="middle" font-size="140" fill="#FF851B" filter="url(#glow)" font-family="serif">♌</text>
  <text x="300" y="370" text-anchor="middle" font-size="32" fill="white" font-family="sans-serif" font-weight="bold">Leo</text>

  <!-- X between signs -->
  <text x="600" y="290" text-anchor="middle" font-size="60" fill="#a78bfa" font-family="sans-serif">×</text>

  <!-- Sign 2 symbol -->
  <text x="900" y="300" text-anchor="middle" font-size="140" fill="#85144B" filter="url(#glow)" font-family="serif">♏</text>
  <text x="900" y="370" text-anchor="middle" font-size="32" fill="white" font-family="sans-serif" font-weight="bold">Scorpio</text>

  <!-- Score -->
  <text x="600" y="480" text-anchor="middle" font-size="80" fill="#EF4444" font-family="sans-serif" font-weight="900" filter="url(#glow)">90%</text>

  <!-- Tier label -->
  <text x="600" y="530" text-anchor="middle" font-size="24" fill="#EF4444" font-family="sans-serif" font-weight="bold" letter-spacing="6">CATASTROPHIC</text>

  <!-- Branding -->
  <text x="600" y="600" text-anchor="middle" font-size="18" fill="#a78bfa" font-family="sans-serif" opacity="0.6">zodiac-toxicity.com</text>
</svg>