<svg width="1200" height="630" xmlns="http://www.w3.org/2000/svg">
  <defs>
    <linearGradient id="bg" x1="0%" y1="0%" x2="100%" y2="100%">
      <stop offset="0%" style="stop-color:#0f0c29"/>
      <stop offset="50%" style="stop-color:#302b63"/>
      <stop offset="100%" style="stop-color:#24243e"/>
    </linearGradient>
    <filter id="glow">
      <feGaussianBlur stdDeviation="4" result="blur"/>
      <feMerge>
        <feMergeNode in="blur"/>
        <feMergeNode in="SourceGraphic"/>
      </feMerge>
    </filter>
  </defs>

  <!-- Background -->
  <rect width="1200" height="630" fill="url(#bg)"/>

  <!-- Stars (decorative dots) -->
  <circle cx="412" cy="427" r="1.4854912141616048" fill="white" opacity="0.7432903471019999"/>
  <circle cx="1174" cy="358" r="0.7107106358681187" fill="white" opacity="0.5294147478612383"/>
  <circle cx="879" cy="260" r="1.0768125691690793" fill="white" opacity="0.5475718533276741"/>
  <circle cx="569" cy="383" r="1.5925346036728558" fill="white" opacity="0.7651751405510356"/>
  <circle cx="99" cy="408" r="0.6812568332134792" fill="white" opacity="0.3625866416653954"/>
  <circle cx="253" cy="79" r="0.8084007745593356" fill="white" opacity="0.3302946035371448"/>
  <circle cx="15" cy="455" r="1.8557665999306177" fill="white" opacity="0.7548171587884855"/>
  <circle cx="549" cy="136" r="1.9394345967584923" fill="white" opacity="0.355884889923635"/>
  <circle cx="265" cy="192" r="0.9259754257021727" fill="white" opacity="0.7244028255021948"/>
  <circle cx="312" cy="457" r="1.7112675687176018" fill="white" opacity="0.6257036103032358"/>
  <circle cx="1054" cy="232" r="1.756073726998615" fill="white" opacity="0.5994453947362208"/>
  <circle cx="10" cy="489" r="1.0296866812133207" fill="white" opacity="0.6849394530467949"/>
  <circle cx="1095" cy="141" r="1.5969894084412748" fill="white" opacity="0.3796686807840418"/>
  <circle cx="799" cy="170" r="0.5402815780366257" fill="white" opacity="0.5428559809176102"/>
  <circle cx="210" cy="149" r="0.9631975362730454" fill="white" opacity="0.6129068509759494"/>
  <circle cx="315" cy="57" r="1.0182124464896711" fill="white" opacity="0.4156969938398438"/>
  <circle cx="1066" cy="492" r="0.634847921752012" fill="white" opacity="0.6382597831537424"/>
  <circle cx="551" cy="136" r="1.5470862875748645" fill="white" opacity="0.5143729869788346"/>
  <circle cx="237" cy="85" r="0.723681964732642" fill="white" opacity="0.6600434503951871"/>
  <circle cx="1159" cy="109" r="0.6758078527168547" fill="white" opacity="0.40261762284868347"/>
  <circle cx="398" cy="78" r="1.1053992827788037" fill="white" opacity="0.617223659467925"/>
  <circle cx="246" cy="230" r="0.8293282956799102" fill="white" opacity="0.5512641486727041"/>
  <circle cx="51" cy="136" r="0.7610164999588807" fill="white" opacity="0.7599556886964935"/>
  <circle cx="686" cy="506" r="1.016059523186884" fill="white" opacity="0.6289284253831748"/>
  <circle cx="116" cy="3" r="1.924833938402241" fill="white" opacity="0.7447675984850858"/>
  <circle cx="117" cy="25" r="1.5192678114450309" fill="white" opacity="0.44522927579063604"/>
  <circle cx="250" cy="259" r="1.8734159550634741" fill="white" opacity="0.4843038120990077"/>
  <circle cx="757" cy="448" r="0.516757383977883" fill="white" opacity="0.3910869600260892"/>
  <circle cx="700" cy="364" r="1.1947072383578483" fill="white" opacity="0.5003590772120947"/>
  <circle cx="1041" cy="115" r="0.7866884035490392" fill="white" opacity="0.44473332976598373"/>
  <circle cx="714" cy="53" r="1.4338241349305236" fill="white" opacity="0.32966657415586115"/>
  <circle cx="807" cy="248" r="1.0479961482983797" fill="white" opacity="0.7634607332092092"/>
  <circle cx="265" cy="586" r="1.9594080186794807" fill="white" opacity="0.3589780829345929"/>
  <circle cx="863" cy="533" r="1.6627096505285757" fill="white" opacity="0.4247831064645574"/>
  <circle cx="117" cy="392" r="1.4725284228169808" fill="white" opacity="0.30267888493355993"/>
  <circle cx="282" cy="419" r="0.9646926846973545" fill="white" opacity="0.761467089439424"/>
  <circle cx="714" cy="322" r="1.9460089076393778" fill="white" opacity="0.6140949506913035"/>
  <circle cx="925" cy="406" r="1.2585887693557472" fill="white" opacity="0.6904694252653428"/>
  <circle cx="467" cy="27" r="1.393533040519991" fill="white" opacity="0.3847389531096016"/>
  <circle cx="631" cy="10" r="1.9523563607218293" fill="white" opacity="0.4475196313665533"/>

  <!-- Sign 1 symbol -->
  <text x="300" y="300" text-anchor="middle" font-size="140" fill="#FF851B" filter="url(#glow)" font-family="serif">♌</text>
  <text x="300" y="370" text-anchor="middle" font-size="32" fill="white" font-family="sans-serif" font-weight="bold">Leo</text>

  <!-- X between signs -->
  <text x="600" y="290" text-anchor="middle" font-size="60" fill="#a78bfa" font-family="sans-serif">×</text>

  <!-- Sign 2 symbol -->
  <text x="900" y="300" text-anchor="middle" font-size="140" fill="#0074D9" filter="url(#glow)" font-family="serif">♓</text>
  <text x="900" y="370" text-anchor="middle" font-size="32" fill="white" font-family="sans-serif" font-weight="bold">Pisces</text>

  <!-- Score -->
  <text x="600" y="480" text-anchor="middle" font-size="80" fill="#EF4444" font-family="sans-serif" font-weight="900" filter="url(#glow)">90%</text>

  <!-- Tier label -->
  <text x="600" y="530" text-anchor="middle" font-size="24" fill="#EF4444" font-family="sans-serif" font-weight="bold" letter-spacing="6">CATASTROPHIC</text>

  <!-- Branding -->
  <text x="600" y="600" text-anchor="middle" font-size="18" fill="#a78bfa" font-family="sans-serif" opacity="0.6">zodiac-toxicity.com</text>
</svg>