<svg width="1200" height="630" xmlns="http://www.w3.org/2000/svg">
  <defs>
    <linearGradient id="bg" x1="0%" y1="0%" x2="100%" y2="100%">
      <stop offset="0%" style="stop-color:#0f0c29"/>
      <stop offset="50%" style="stop-color:#302b63"/>
      <stop offset="100%" style="stop-color:#24243e"/>
    </linearGradient>
    <filter id="glow">
      <feGaussianBlur stdDeviation="4" result="blur"/>
      <feMerge>
        <feMergeNode in="blur"/>
        <feMergeNode in="SourceGraphic"/>
      </feMerge>
    </filter>
  </defs>

  <!-- Background -->
  <rect width="1200" height="630" fill="url(#bg)"/>

  <!-- Stars (decorative dots) -->
  <circle cx="842" cy="613" r="1.2928194647971716" fill="white" opacity="0.3027688441445413"/>
  <circle cx="1135" cy="511" r="1.1734598246152619" fill="white" opacity="0.5455059809978628"/>
  <circle cx="410" cy="579" r="1.141127673196189" fill="white" opacity="0.6956893860871121"/>
  <circle cx="559" cy="179" r="1.068387336555117" fill="white" opacity="0.752619481746534"/>
  <circle cx="266" cy="364" r="1.5016679211075146" fill="white" opacity="0.35796469080865145"/>
  <circle cx="936" cy="255" r="1.0358275738934972" fill="white" opacity="0.7715079548131534"/>
  <circle cx="988" cy="52" r="1.8048576889008598" fill="white" opacity="0.5847857685558178"/>
  <circle cx="545" cy="610" r="1.7847429526719933" fill="white" opacity="0.7234126200262158"/>
  <circle cx="624" cy="146" r="1.0564076083621778" fill="white" opacity="0.3854279582849711"/>
  <circle cx="767" cy="21" r="0.6058012943745046" fill="white" opacity="0.5523337368872663"/>
  <circle cx="185" cy="496" r="1.8205518231507585" fill="white" opacity="0.33779996833768267"/>
  <circle cx="900" cy="87" r="1.6595676212896615" fill="white" opacity="0.5705535545878291"/>
  <circle cx="1003" cy="24" r="1.1040380711517794" fill="white" opacity="0.7768817781463372"/>
  <circle cx="469" cy="375" r="1.7802409205516112" fill="white" opacity="0.730516458732577"/>
  <circle cx="560" cy="514" r="1.1322606447852364" fill="white" opacity="0.6510941884121408"/>
  <circle cx="355" cy="282" r="1.804266674309161" fill="white" opacity="0.7983180358611262"/>
  <circle cx="221" cy="344" r="1.8580555800792036" fill="white" opacity="0.4825474627549775"/>
  <circle cx="606" cy="523" r="1.235792724542032" fill="white" opacity="0.5628353349387377"/>
  <circle cx="499" cy="589" r="1.2764664302823931" fill="white" opacity="0.7827942617262298"/>
  <circle cx="1128" cy="80" r="1.2945224062441616" fill="white" opacity="0.7082238949737854"/>
  <circle cx="226" cy="364" r="1.479095163134197" fill="white" opacity="0.43234713321955276"/>
  <circle cx="287" cy="561" r="1.6020646803591077" fill="white" opacity="0.5214398480452129"/>
  <circle cx="800" cy="183" r="1.4037966988355637" fill="white" opacity="0.3621490961806767"/>
  <circle cx="851" cy="177" r="1.2967706578903673" fill="white" opacity="0.5760545766377918"/>
  <circle cx="661" cy="352" r="0.68664976052607" fill="white" opacity="0.6862492640165269"/>
  <circle cx="611" cy="161" r="1.1663078720142241" fill="white" opacity="0.7670063180432491"/>
  <circle cx="1093" cy="229" r="1.6186354832252787" fill="white" opacity="0.40822736214133104"/>
  <circle cx="508" cy="12" r="0.6723057246790974" fill="white" opacity="0.306682342655453"/>
  <circle cx="355" cy="14" r="1.7145417044088966" fill="white" opacity="0.4396206351385271"/>
  <circle cx="622" cy="204" r="1.842548286683773" fill="white" opacity="0.7981774858777501"/>
  <circle cx="152" cy="385" r="1.56149137702608" fill="white" opacity="0.5845799161312051"/>
  <circle cx="39" cy="26" r="1.3280023147418913" fill="white" opacity="0.507807596211773"/>
  <circle cx="7" cy="580" r="1.4044695684361592" fill="white" opacity="0.6826052365559181"/>
  <circle cx="452" cy="281" r="0.6445218994413947" fill="white" opacity="0.498987249075077"/>
  <circle cx="432" cy="276" r="0.9536874973986056" fill="white" opacity="0.4429681452559854"/>
  <circle cx="12" cy="181" r="1.1712178396741262" fill="white" opacity="0.7611071253033584"/>
  <circle cx="1018" cy="0" r="1.3115082964036544" fill="white" opacity="0.5060881787831621"/>
  <circle cx="222" cy="82" r="0.8504340422827175" fill="white" opacity="0.36657548072873675"/>
  <circle cx="721" cy="497" r="1.3823946901622044" fill="white" opacity="0.3031621672937863"/>
  <circle cx="276" cy="16" r="1.6872154413596139" fill="white" opacity="0.4161694506269214"/>

  <!-- Sign 1 symbol -->
  <text x="300" y="300" text-anchor="middle" font-size="140" fill="#FF69B4" filter="url(#glow)" font-family="serif">♎</text>
  <text x="300" y="370" text-anchor="middle" font-size="32" fill="white" font-family="sans-serif" font-weight="bold">Libra</text>

  <!-- X between signs -->
  <text x="600" y="290" text-anchor="middle" font-size="60" fill="#a78bfa" font-family="sans-serif">×</text>

  <!-- Sign 2 symbol -->
  <text x="900" y="300" text-anchor="middle" font-size="140" fill="#F012BE" filter="url(#glow)" font-family="serif">♐</text>
  <text x="900" y="370" text-anchor="middle" font-size="32" fill="white" font-family="sans-serif" font-weight="bold">Sagittarius</text>

  <!-- Score -->
  <text x="600" y="480" text-anchor="middle" font-size="80" fill="#F97316" font-family="sans-serif" font-weight="900" filter="url(#glow)">75%</text>

  <!-- Tier label -->
  <text x="600" y="530" text-anchor="middle" font-size="24" fill="#F97316" font-family="sans-serif" font-weight="bold" letter-spacing="6">VOLATILE</text>

  <!-- Branding -->
  <text x="600" y="600" text-anchor="middle" font-size="18" fill="#a78bfa" font-family="sans-serif" opacity="0.6">zodiac-toxicity.com</text>
</svg>