<svg width="1200" height="630" xmlns="http://www.w3.org/2000/svg">
  <defs>
    <linearGradient id="bg" x1="0%" y1="0%" x2="100%" y2="100%">
      <stop offset="0%" style="stop-color:#0f0c29"/>
      <stop offset="50%" style="stop-color:#302b63"/>
      <stop offset="100%" style="stop-color:#24243e"/>
    </linearGradient>
    <filter id="glow">
      <feGaussianBlur stdDeviation="4" result="blur"/>
      <feMerge>
        <feMergeNode in="blur"/>
        <feMergeNode in="SourceGraphic"/>
      </feMerge>
    </filter>
  </defs>

  <!-- Background -->
  <rect width="1200" height="630" fill="url(#bg)"/>

  <!-- Stars (decorative dots) -->
  <circle cx="719" cy="195" r="1.0100639774109867" fill="white" opacity="0.7541097246318271"/>
  <circle cx="544" cy="411" r="0.6913550411362079" fill="white" opacity="0.4649806992404942"/>
  <circle cx="523" cy="419" r="0.9231566585563387" fill="white" opacity="0.3792729731082337"/>
  <circle cx="942" cy="348" r="1.3168323896159442" fill="white" opacity="0.6722835016357402"/>
  <circle cx="481" cy="45" r="1.6483387439972654" fill="white" opacity="0.3844272362569282"/>
  <circle cx="1089" cy="229" r="1.9249793781180653" fill="white" opacity="0.5622168157687131"/>
  <circle cx="835" cy="523" r="1.1662342710088158" fill="white" opacity="0.3720541779592254"/>
  <circle cx="186" cy="30" r="1.0121548452059959" fill="white" opacity="0.37133880253254303"/>
  <circle cx="1144" cy="39" r="0.5920119142475493" fill="white" opacity="0.7171504849165902"/>
  <circle cx="1157" cy="610" r="1.3741731528160281" fill="white" opacity="0.35212870044530453"/>
  <circle cx="243" cy="2" r="1.6015422108544224" fill="white" opacity="0.7790911260893951"/>
  <circle cx="549" cy="113" r="0.7345277858560058" fill="white" opacity="0.7749621131553874"/>
  <circle cx="181" cy="196" r="0.9591561234618675" fill="white" opacity="0.47186965561795813"/>
  <circle cx="627" cy="193" r="1.5193466069959591" fill="white" opacity="0.7980493849486736"/>
  <circle cx="493" cy="383" r="1.2197823283512805" fill="white" opacity="0.7776008776108949"/>
  <circle cx="900" cy="174" r="0.6423864279806912" fill="white" opacity="0.7808529412026053"/>
  <circle cx="37" cy="485" r="1.8668090411424836" fill="white" opacity="0.7855121273181702"/>
  <circle cx="750" cy="304" r="1.430079985449357" fill="white" opacity="0.34285907385811676"/>
  <circle cx="678" cy="123" r="1.434705359974348" fill="white" opacity="0.6853443509150878"/>
  <circle cx="109" cy="302" r="1.726337207114189" fill="white" opacity="0.6048646579817587"/>
  <circle cx="125" cy="77" r="1.9160069741303174" fill="white" opacity="0.3293555785789236"/>
  <circle cx="1187" cy="74" r="0.6041626838385776" fill="white" opacity="0.770306336707111"/>
  <circle cx="601" cy="129" r="0.5351431419735404" fill="white" opacity="0.5499500695638223"/>
  <circle cx="558" cy="335" r="1.55842923464526" fill="white" opacity="0.46847416261603986"/>
  <circle cx="1074" cy="388" r="0.993138823283461" fill="white" opacity="0.5049940607546157"/>
  <circle cx="173" cy="334" r="1.456259370120792" fill="white" opacity="0.45160187545130964"/>
  <circle cx="490" cy="229" r="1.0320983112747992" fill="white" opacity="0.5073941486152973"/>
  <circle cx="654" cy="571" r="0.9763560649263152" fill="white" opacity="0.3308206507199586"/>
  <circle cx="698" cy="628" r="1.2621271446470599" fill="white" opacity="0.6810332861094727"/>
  <circle cx="793" cy="232" r="0.8545481194477118" fill="white" opacity="0.6022511584947661"/>
  <circle cx="1180" cy="264" r="1.0929963516518384" fill="white" opacity="0.6117189747236464"/>
  <circle cx="552" cy="164" r="0.6931162047443561" fill="white" opacity="0.5257359664812324"/>
  <circle cx="247" cy="254" r="1.7411374155164605" fill="white" opacity="0.7048059871189235"/>
  <circle cx="604" cy="481" r="1.5239293446526756" fill="white" opacity="0.7304830248268388"/>
  <circle cx="176" cy="24" r="0.9597560850898754" fill="white" opacity="0.6395905442878402"/>
  <circle cx="903" cy="530" r="1.8781449172041829" fill="white" opacity="0.6107378863675113"/>
  <circle cx="8" cy="544" r="1.0290516959945872" fill="white" opacity="0.7849184451431114"/>
  <circle cx="1106" cy="102" r="1.9420425061813988" fill="white" opacity="0.34470543776923224"/>
  <circle cx="805" cy="515" r="0.5229324355874108" fill="white" opacity="0.4367320168040615"/>
  <circle cx="2" cy="478" r="0.9734183979312646" fill="white" opacity="0.6798065969862627"/>

  <!-- Sign 1 symbol -->
  <text x="300" y="300" text-anchor="middle" font-size="140" fill="#0074D9" filter="url(#glow)" font-family="serif">♓</text>
  <text x="300" y="370" text-anchor="middle" font-size="32" fill="white" font-family="sans-serif" font-weight="bold">Pisces</text>

  <!-- X between signs -->
  <text x="600" y="290" text-anchor="middle" font-size="60" fill="#a78bfa" font-family="sans-serif">×</text>

  <!-- Sign 2 symbol -->
  <text x="900" y="300" text-anchor="middle" font-size="140" fill="#FF4136" filter="url(#glow)" font-family="serif">♈</text>
  <text x="900" y="370" text-anchor="middle" font-size="32" fill="white" font-family="sans-serif" font-weight="bold">Aries</text>

  <!-- Score -->
  <text x="600" y="480" text-anchor="middle" font-size="80" fill="#EF4444" font-family="sans-serif" font-weight="900" filter="url(#glow)">90%</text>

  <!-- Tier label -->
  <text x="600" y="530" text-anchor="middle" font-size="24" fill="#EF4444" font-family="sans-serif" font-weight="bold" letter-spacing="6">CATASTROPHIC</text>

  <!-- Branding -->
  <text x="600" y="600" text-anchor="middle" font-size="18" fill="#a78bfa" font-family="sans-serif" opacity="0.6">zodiac-toxicity.com</text>
</svg>