<svg width="1200" height="630" xmlns="http://www.w3.org/2000/svg">
  <defs>
    <linearGradient id="bg" x1="0%" y1="0%" x2="100%" y2="100%">
      <stop offset="0%" style="stop-color:#0f0c29"/>
      <stop offset="50%" style="stop-color:#302b63"/>
      <stop offset="100%" style="stop-color:#24243e"/>
    </linearGradient>
    <filter id="glow">
      <feGaussianBlur stdDeviation="4" result="blur"/>
      <feMerge>
        <feMergeNode in="blur"/>
        <feMergeNode in="SourceGraphic"/>
      </feMerge>
    </filter>
  </defs>

  <!-- Background -->
  <rect width="1200" height="630" fill="url(#bg)"/>

  <!-- Stars (decorative dots) -->
  <circle cx="1163" cy="510" r="0.9677024133312326" fill="white" opacity="0.4681035660542148"/>
  <circle cx="1096" cy="617" r="0.7408350515244635" fill="white" opacity="0.5014274422195057"/>
  <circle cx="1103" cy="501" r="1.2757604081521117" fill="white" opacity="0.7704553334499524"/>
  <circle cx="149" cy="226" r="0.9020763687216764" fill="white" opacity="0.3601792350073509"/>
  <circle cx="975" cy="244" r="1.9393889201928944" fill="white" opacity="0.3481623743073381"/>
  <circle cx="999" cy="51" r="1.8682070059338893" fill="white" opacity="0.6546183875202969"/>
  <circle cx="397" cy="51" r="0.8464393881057275" fill="white" opacity="0.4754564918212936"/>
  <circle cx="492" cy="604" r="1.3354364174703524" fill="white" opacity="0.5134697488663095"/>
  <circle cx="853" cy="305" r="1.8123367582277832" fill="white" opacity="0.4131448508810222"/>
  <circle cx="1196" cy="456" r="1.2075751863557775" fill="white" opacity="0.33185891032529724"/>
  <circle cx="1144" cy="622" r="1.1215329860842784" fill="white" opacity="0.7754717586900386"/>
  <circle cx="431" cy="583" r="0.503498443136307" fill="white" opacity="0.7607916489101569"/>
  <circle cx="769" cy="564" r="0.6332718746710866" fill="white" opacity="0.31431923844757614"/>
  <circle cx="100" cy="470" r="0.9830304329737518" fill="white" opacity="0.60601223976927"/>
  <circle cx="1002" cy="411" r="1.386725407478586" fill="white" opacity="0.4706999781162003"/>
  <circle cx="328" cy="621" r="0.8553994041202619" fill="white" opacity="0.30459985487581814"/>
  <circle cx="568" cy="278" r="0.8394094456344385" fill="white" opacity="0.7515283517123099"/>
  <circle cx="209" cy="480" r="1.8292312714027277" fill="white" opacity="0.5961314744597687"/>
  <circle cx="965" cy="539" r="1.9230744049918103" fill="white" opacity="0.6925936148790042"/>
  <circle cx="748" cy="237" r="0.5062334524955003" fill="white" opacity="0.574119551726793"/>
  <circle cx="461" cy="574" r="1.7660568941947403" fill="white" opacity="0.742913402705129"/>
  <circle cx="320" cy="597" r="0.9298593997425697" fill="white" opacity="0.6778481769770055"/>
  <circle cx="745" cy="532" r="1.673834721183978" fill="white" opacity="0.7961584766455316"/>
  <circle cx="155" cy="432" r="1.6378916443286797" fill="white" opacity="0.639114055119947"/>
  <circle cx="341" cy="213" r="1.2213177791293466" fill="white" opacity="0.6141713470865668"/>
  <circle cx="700" cy="202" r="1.4041886386498854" fill="white" opacity="0.5244481879688151"/>
  <circle cx="221" cy="227" r="1.5029169046586393" fill="white" opacity="0.48170938885989695"/>
  <circle cx="110" cy="150" r="1.904047687019118" fill="white" opacity="0.3806533684597421"/>
  <circle cx="769" cy="522" r="1.256946911217279" fill="white" opacity="0.4650541428911006"/>
  <circle cx="764" cy="71" r="0.5484245501015793" fill="white" opacity="0.6300842485074234"/>
  <circle cx="1028" cy="499" r="0.8032405625209178" fill="white" opacity="0.4991794475349962"/>
  <circle cx="17" cy="63" r="0.5075683189312783" fill="white" opacity="0.33826540969361696"/>
  <circle cx="537" cy="90" r="1.4914796346561021" fill="white" opacity="0.7157769292099302"/>
  <circle cx="353" cy="157" r="0.9176659520388122" fill="white" opacity="0.38002997555968526"/>
  <circle cx="352" cy="406" r="1.3310580342941178" fill="white" opacity="0.623137137188144"/>
  <circle cx="679" cy="285" r="0.8338749157069341" fill="white" opacity="0.5626411201080612"/>
  <circle cx="703" cy="431" r="0.5998261256721731" fill="white" opacity="0.7935659921676552"/>
  <circle cx="238" cy="271" r="1.933145342416047" fill="white" opacity="0.740279929809107"/>
  <circle cx="288" cy="219" r="1.8217805362646622" fill="white" opacity="0.37493624807174114"/>
  <circle cx="343" cy="81" r="1.0973610378965288" fill="white" opacity="0.6030570073917768"/>

  <!-- Sign 1 symbol -->
  <text x="300" y="300" text-anchor="middle" font-size="140" fill="#F012BE" filter="url(#glow)" font-family="serif">♐</text>
  <text x="300" y="370" text-anchor="middle" font-size="32" fill="white" font-family="sans-serif" font-weight="bold">Sagittarius</text>

  <!-- X between signs -->
  <text x="600" y="290" text-anchor="middle" font-size="60" fill="#a78bfa" font-family="sans-serif">×</text>

  <!-- Sign 2 symbol -->
  <text x="900" y="300" text-anchor="middle" font-size="140" fill="#B10DC9" filter="url(#glow)" font-family="serif">♋</text>
  <text x="900" y="370" text-anchor="middle" font-size="32" fill="white" font-family="sans-serif" font-weight="bold">Cancer</text>

  <!-- Score -->
  <text x="600" y="480" text-anchor="middle" font-size="80" fill="#EF4444" font-family="sans-serif" font-weight="900" filter="url(#glow)">90%</text>

  <!-- Tier label -->
  <text x="600" y="530" text-anchor="middle" font-size="24" fill="#EF4444" font-family="sans-serif" font-weight="bold" letter-spacing="6">CATASTROPHIC</text>

  <!-- Branding -->
  <text x="600" y="600" text-anchor="middle" font-size="18" fill="#a78bfa" font-family="sans-serif" opacity="0.6">zodiac-toxicity.com</text>
</svg>