<svg width="1200" height="630" xmlns="http://www.w3.org/2000/svg">
  <defs>
    <linearGradient id="bg" x1="0%" y1="0%" x2="100%" y2="100%">
      <stop offset="0%" style="stop-color:#0f0c29"/>
      <stop offset="50%" style="stop-color:#302b63"/>
      <stop offset="100%" style="stop-color:#24243e"/>
    </linearGradient>
    <filter id="glow">
      <feGaussianBlur stdDeviation="4" result="blur"/>
      <feMerge>
        <feMergeNode in="blur"/>
        <feMergeNode in="SourceGraphic"/>
      </feMerge>
    </filter>
  </defs>

  <!-- Background -->
  <rect width="1200" height="630" fill="url(#bg)"/>

  <!-- Stars (decorative dots) -->
  <circle cx="401" cy="361" r="0.6445556655153266" fill="white" opacity="0.4392701745581446"/>
  <circle cx="104" cy="212" r="1.022027271709952" fill="white" opacity="0.7794236407911272"/>
  <circle cx="570" cy="42" r="1.5704967739193454" fill="white" opacity="0.4764026875221509"/>
  <circle cx="218" cy="413" r="0.67967878484738" fill="white" opacity="0.36107429642995253"/>
  <circle cx="408" cy="11" r="1.7976701659694232" fill="white" opacity="0.30947462706872253"/>
  <circle cx="737" cy="263" r="1.5524057041615453" fill="white" opacity="0.7566081281506536"/>
  <circle cx="1179" cy="141" r="1.0149220083637605" fill="white" opacity="0.7902866234604824"/>
  <circle cx="884" cy="36" r="1.6697679388495397" fill="white" opacity="0.7057591573526512"/>
  <circle cx="392" cy="501" r="1.3801874618398613" fill="white" opacity="0.5886423352584581"/>
  <circle cx="648" cy="563" r="1.8702337490664547" fill="white" opacity="0.7077500617591846"/>
  <circle cx="716" cy="103" r="1.6287254893557097" fill="white" opacity="0.4652774657663238"/>
  <circle cx="1014" cy="433" r="1.4702770954474995" fill="white" opacity="0.6080590684908493"/>
  <circle cx="1104" cy="220" r="1.5421481756200028" fill="white" opacity="0.7594295628912602"/>
  <circle cx="104" cy="318" r="1.0629747453149139" fill="white" opacity="0.49210222453053937"/>
  <circle cx="992" cy="256" r="1.378971370370767" fill="white" opacity="0.42384758917531035"/>
  <circle cx="196" cy="39" r="1.6422067251204888" fill="white" opacity="0.5194905659436869"/>
  <circle cx="763" cy="264" r="0.7460109370735879" fill="white" opacity="0.413137929540056"/>
  <circle cx="424" cy="611" r="1.16310265510038" fill="white" opacity="0.34591903789860456"/>
  <circle cx="1188" cy="105" r="1.98269906652261" fill="white" opacity="0.6543163171941507"/>
  <circle cx="293" cy="522" r="0.967641468973522" fill="white" opacity="0.7263324891002636"/>
  <circle cx="1113" cy="396" r="1.6092196603392255" fill="white" opacity="0.5135589982584493"/>
  <circle cx="22" cy="27" r="1.2875476238418742" fill="white" opacity="0.39259692672180707"/>
  <circle cx="309" cy="592" r="1.0313380814994297" fill="white" opacity="0.6627159045939549"/>
  <circle cx="1184" cy="362" r="1.326876738962437" fill="white" opacity="0.7723137579832955"/>
  <circle cx="560" cy="138" r="1.109891978939768" fill="white" opacity="0.6894320481973211"/>
  <circle cx="639" cy="245" r="1.3763292718322377" fill="white" opacity="0.4030999279872165"/>
  <circle cx="102" cy="173" r="1.6898789876683649" fill="white" opacity="0.3004248352439917"/>
  <circle cx="391" cy="271" r="0.8173049770924876" fill="white" opacity="0.37310816579924305"/>
  <circle cx="1019" cy="156" r="0.5793189858106158" fill="white" opacity="0.7057089680626429"/>
  <circle cx="1041" cy="313" r="1.1514656196094881" fill="white" opacity="0.48792602051002554"/>
  <circle cx="219" cy="498" r="1.4234399454933961" fill="white" opacity="0.30271399840434204"/>
  <circle cx="955" cy="396" r="1.665980518808707" fill="white" opacity="0.6662922299424805"/>
  <circle cx="547" cy="436" r="1.5445946098826173" fill="white" opacity="0.7945396776899232"/>
  <circle cx="220" cy="146" r="0.8490464413430863" fill="white" opacity="0.34218060278004947"/>
  <circle cx="328" cy="19" r="1.0561219074711095" fill="white" opacity="0.5124593383425778"/>
  <circle cx="301" cy="441" r="1.0547345897386773" fill="white" opacity="0.31916646310164537"/>
  <circle cx="1115" cy="597" r="1.0908944876187978" fill="white" opacity="0.5863267074775557"/>
  <circle cx="130" cy="126" r="1.6818730019006536" fill="white" opacity="0.5707862519712628"/>
  <circle cx="1136" cy="559" r="1.520153298402223" fill="white" opacity="0.4666566189671418"/>
  <circle cx="1100" cy="453" r="1.4387609864376436" fill="white" opacity="0.7325964909867124"/>

  <!-- Sign 1 symbol -->
  <text x="300" y="300" text-anchor="middle" font-size="140" fill="#85144B" filter="url(#glow)" font-family="serif">♏</text>
  <text x="300" y="370" text-anchor="middle" font-size="32" fill="white" font-family="sans-serif" font-weight="bold">Scorpio</text>

  <!-- X between signs -->
  <text x="600" y="290" text-anchor="middle" font-size="60" fill="#a78bfa" font-family="sans-serif">×</text>

  <!-- Sign 2 symbol -->
  <text x="900" y="300" text-anchor="middle" font-size="140" fill="#B10DC9" filter="url(#glow)" font-family="serif">♋</text>
  <text x="900" y="370" text-anchor="middle" font-size="32" fill="white" font-family="sans-serif" font-weight="bold">Cancer</text>

  <!-- Score -->
  <text x="600" y="480" text-anchor="middle" font-size="80" fill="#F97316" font-family="sans-serif" font-weight="900" filter="url(#glow)">72%</text>

  <!-- Tier label -->
  <text x="600" y="530" text-anchor="middle" font-size="24" fill="#F97316" font-family="sans-serif" font-weight="bold" letter-spacing="6">VOLATILE</text>

  <!-- Branding -->
  <text x="600" y="600" text-anchor="middle" font-size="18" fill="#a78bfa" font-family="sans-serif" opacity="0.6">zodiac-toxicity.com</text>
</svg>