<svg width="1200" height="630" xmlns="http://www.w3.org/2000/svg">
  <defs>
    <linearGradient id="bg" x1="0%" y1="0%" x2="100%" y2="100%">
      <stop offset="0%" style="stop-color:#0f0c29"/>
      <stop offset="50%" style="stop-color:#302b63"/>
      <stop offset="100%" style="stop-color:#24243e"/>
    </linearGradient>
    <filter id="glow">
      <feGaussianBlur stdDeviation="4" result="blur"/>
      <feMerge>
        <feMergeNode in="blur"/>
        <feMergeNode in="SourceGraphic"/>
      </feMerge>
    </filter>
  </defs>

  <!-- Background -->
  <rect width="1200" height="630" fill="url(#bg)"/>

  <!-- Stars (decorative dots) -->
  <circle cx="431" cy="454" r="1.490213149457285" fill="white" opacity="0.7903147172829673"/>
  <circle cx="492" cy="305" r="1.5011103301575979" fill="white" opacity="0.35070482545142734"/>
  <circle cx="831" cy="539" r="0.5678365316736244" fill="white" opacity="0.6391586238266225"/>
  <circle cx="992" cy="533" r="1.5054461888381927" fill="white" opacity="0.724375394920769"/>
  <circle cx="281" cy="326" r="1.3393395930939707" fill="white" opacity="0.3102323327963678"/>
  <circle cx="266" cy="227" r="1.588583087537603" fill="white" opacity="0.5802155266970888"/>
  <circle cx="803" cy="67" r="1.6511998990487466" fill="white" opacity="0.6782147239724743"/>
  <circle cx="1196" cy="323" r="0.5792820649997545" fill="white" opacity="0.5046384156917656"/>
  <circle cx="526" cy="232" r="1.3703973403750076" fill="white" opacity="0.3532461296264139"/>
  <circle cx="207" cy="347" r="0.806866094465019" fill="white" opacity="0.7915436065759109"/>
  <circle cx="943" cy="121" r="1.4278670072350308" fill="white" opacity="0.3519583648949016"/>
  <circle cx="760" cy="578" r="1.9531460450120601" fill="white" opacity="0.4360613309560493"/>
  <circle cx="980" cy="429" r="0.609809713886271" fill="white" opacity="0.5920684910632708"/>
  <circle cx="396" cy="527" r="1.4850225152699101" fill="white" opacity="0.6177137293346162"/>
  <circle cx="560" cy="309" r="1.1778352513241577" fill="white" opacity="0.7871752838197925"/>
  <circle cx="904" cy="26" r="1.844752166130103" fill="white" opacity="0.3760915748772964"/>
  <circle cx="89" cy="71" r="1.6417312265164137" fill="white" opacity="0.4075276678432109"/>
  <circle cx="956" cy="212" r="1.9185124172686745" fill="white" opacity="0.4426349834991511"/>
  <circle cx="658" cy="257" r="1.836071968756144" fill="white" opacity="0.5295832617841884"/>
  <circle cx="66" cy="115" r="1.3860426637734868" fill="white" opacity="0.43805472838766857"/>
  <circle cx="1083" cy="94" r="1.5775754085674691" fill="white" opacity="0.6921916693586517"/>
  <circle cx="375" cy="315" r="1.0105521431533613" fill="white" opacity="0.6811779069028723"/>
  <circle cx="713" cy="101" r="1.9424047967222253" fill="white" opacity="0.4662292801864523"/>
  <circle cx="299" cy="321" r="1.71165331336531" fill="white" opacity="0.3951320223427237"/>
  <circle cx="141" cy="553" r="1.7821833745083717" fill="white" opacity="0.6226153625295392"/>
  <circle cx="127" cy="13" r="1.4108648634609535" fill="white" opacity="0.7455092237436192"/>
  <circle cx="1075" cy="420" r="1.9420835478918672" fill="white" opacity="0.7046150789950547"/>
  <circle cx="450" cy="214" r="1.5067574284885183" fill="white" opacity="0.5098802681223391"/>
  <circle cx="976" cy="95" r="0.7933806958755104" fill="white" opacity="0.6949469250767146"/>
  <circle cx="760" cy="53" r="1.08627739449235" fill="white" opacity="0.6462051006335474"/>
  <circle cx="606" cy="56" r="1.109111596096563" fill="white" opacity="0.43473988835030086"/>
  <circle cx="208" cy="259" r="0.5761497531129405" fill="white" opacity="0.6865866438805746"/>
  <circle cx="556" cy="265" r="1.210152278323538" fill="white" opacity="0.5060812405996105"/>
  <circle cx="44" cy="368" r="1.9347646372377463" fill="white" opacity="0.6009399760881178"/>
  <circle cx="736" cy="51" r="1.8091428288680147" fill="white" opacity="0.419122741614705"/>
  <circle cx="944" cy="107" r="1.885045181128433" fill="white" opacity="0.5279134213627116"/>
  <circle cx="95" cy="294" r="1.8083591587142855" fill="white" opacity="0.3173112526598668"/>
  <circle cx="631" cy="602" r="1.3592717428799546" fill="white" opacity="0.6436466924723182"/>
  <circle cx="1162" cy="330" r="1.5297170044506534" fill="white" opacity="0.3010224677300261"/>
  <circle cx="350" cy="521" r="0.862114960589319" fill="white" opacity="0.4996767855993209"/>

  <!-- Sign 1 symbol -->
  <text x="300" y="300" text-anchor="middle" font-size="140" fill="#85144B" filter="url(#glow)" font-family="serif">♏</text>
  <text x="300" y="370" text-anchor="middle" font-size="32" fill="white" font-family="sans-serif" font-weight="bold">Scorpio</text>

  <!-- X between signs -->
  <text x="600" y="290" text-anchor="middle" font-size="60" fill="#a78bfa" font-family="sans-serif">×</text>

  <!-- Sign 2 symbol -->
  <text x="900" y="300" text-anchor="middle" font-size="140" fill="#7FDBFF" filter="url(#glow)" font-family="serif">♒</text>
  <text x="900" y="370" text-anchor="middle" font-size="32" fill="white" font-family="sans-serif" font-weight="bold">Aquarius</text>

  <!-- Score -->
  <text x="600" y="480" text-anchor="middle" font-size="80" fill="#EF4444" font-family="sans-serif" font-weight="900" filter="url(#glow)">91%</text>

  <!-- Tier label -->
  <text x="600" y="530" text-anchor="middle" font-size="24" fill="#EF4444" font-family="sans-serif" font-weight="bold" letter-spacing="6">CATASTROPHIC</text>

  <!-- Branding -->
  <text x="600" y="600" text-anchor="middle" font-size="18" fill="#a78bfa" font-family="sans-serif" opacity="0.6">zodiac-toxicity.com</text>
</svg>