<svg width="1200" height="630" xmlns="http://www.w3.org/2000/svg">
  <defs>
    <linearGradient id="bg" x1="0%" y1="0%" x2="100%" y2="100%">
      <stop offset="0%" style="stop-color:#0f0c29"/>
      <stop offset="50%" style="stop-color:#302b63"/>
      <stop offset="100%" style="stop-color:#24243e"/>
    </linearGradient>
    <filter id="glow">
      <feGaussianBlur stdDeviation="4" result="blur"/>
      <feMerge>
        <feMergeNode in="blur"/>
        <feMergeNode in="SourceGraphic"/>
      </feMerge>
    </filter>
  </defs>

  <!-- Background -->
  <rect width="1200" height="630" fill="url(#bg)"/>

  <!-- Stars (decorative dots) -->
  <circle cx="328" cy="621" r="1.7277930514990818" fill="white" opacity="0.45069260449296644"/>
  <circle cx="62" cy="108" r="1.217986111407753" fill="white" opacity="0.5910131072313101"/>
  <circle cx="351" cy="164" r="1.4719733022168862" fill="white" opacity="0.703403113064405"/>
  <circle cx="272" cy="452" r="1.5488222681955772" fill="white" opacity="0.40799063422789666"/>
  <circle cx="930" cy="182" r="1.304302756132547" fill="white" opacity="0.46335609946724277"/>
  <circle cx="1167" cy="99" r="1.488102282707811" fill="white" opacity="0.5305442669421336"/>
  <circle cx="909" cy="478" r="1.0843954762682937" fill="white" opacity="0.5968343027897716"/>
  <circle cx="1139" cy="228" r="0.973553656833891" fill="white" opacity="0.31668554650478015"/>
  <circle cx="418" cy="83" r="1.1108300208395439" fill="white" opacity="0.38952488845145616"/>
  <circle cx="342" cy="319" r="1.5968892777708175" fill="white" opacity="0.32951676901293664"/>
  <circle cx="478" cy="143" r="1.6590915203427914" fill="white" opacity="0.7750789433053427"/>
  <circle cx="1098" cy="387" r="0.9598363443235134" fill="white" opacity="0.5545488666370173"/>
  <circle cx="555" cy="541" r="1.3410903453555487" fill="white" opacity="0.3599051291968656"/>
  <circle cx="1023" cy="304" r="1.7010889817968708" fill="white" opacity="0.631899232891822"/>
  <circle cx="11" cy="93" r="0.823050095189115" fill="white" opacity="0.5007392328128548"/>
  <circle cx="1058" cy="326" r="0.6443458482547761" fill="white" opacity="0.7993658894107185"/>
  <circle cx="112" cy="237" r="1.8167762625393182" fill="white" opacity="0.6861434025985862"/>
  <circle cx="1100" cy="255" r="1.093458933866136" fill="white" opacity="0.6105180627713265"/>
  <circle cx="1079" cy="207" r="1.806528048238857" fill="white" opacity="0.7633205178382312"/>
  <circle cx="742" cy="278" r="0.7736196081993894" fill="white" opacity="0.46606068865282146"/>
  <circle cx="352" cy="211" r="1.3168110701035185" fill="white" opacity="0.4828149862599268"/>
  <circle cx="857" cy="542" r="0.6582015951159602" fill="white" opacity="0.6267628182541496"/>
  <circle cx="1180" cy="276" r="1.3047850151493885" fill="white" opacity="0.7437910975405359"/>
  <circle cx="321" cy="622" r="1.7633328622367175" fill="white" opacity="0.5169751088283767"/>
  <circle cx="786" cy="580" r="1.553753012877961" fill="white" opacity="0.759299070057998"/>
  <circle cx="752" cy="361" r="1.3939038512031603" fill="white" opacity="0.5020173326914802"/>
  <circle cx="641" cy="307" r="1.1348137130936378" fill="white" opacity="0.5929274750395594"/>
  <circle cx="6" cy="114" r="0.6381114518450957" fill="white" opacity="0.6737171604966623"/>
  <circle cx="491" cy="72" r="0.7680945419630241" fill="white" opacity="0.37238674662091137"/>
  <circle cx="402" cy="106" r="0.950764393178096" fill="white" opacity="0.5936444845755268"/>
  <circle cx="506" cy="619" r="1.2154386488074707" fill="white" opacity="0.769968881726018"/>
  <circle cx="87" cy="297" r="1.6790244526124625" fill="white" opacity="0.37542160696445964"/>
  <circle cx="263" cy="150" r="1.4759513688717554" fill="white" opacity="0.7541599422942615"/>
  <circle cx="718" cy="336" r="1.129601266465325" fill="white" opacity="0.543509508534479"/>
  <circle cx="977" cy="493" r="1.8434897048677175" fill="white" opacity="0.4069896882399477"/>
  <circle cx="89" cy="45" r="0.6345684096302371" fill="white" opacity="0.5875584120412116"/>
  <circle cx="845" cy="356" r="1.4724317495279273" fill="white" opacity="0.3902988377009778"/>
  <circle cx="1153" cy="124" r="1.616994049254086" fill="white" opacity="0.6499770311951496"/>
  <circle cx="842" cy="160" r="0.6232076117823213" fill="white" opacity="0.7191301173063888"/>
  <circle cx="426" cy="305" r="1.0256018333216825" fill="white" opacity="0.6350869152705262"/>

  <!-- Sign 1 symbol -->
  <text x="300" y="300" text-anchor="middle" font-size="140" fill="#2ECC40" filter="url(#glow)" font-family="serif">♉</text>
  <text x="300" y="370" text-anchor="middle" font-size="32" fill="white" font-family="sans-serif" font-weight="bold">Taurus</text>

  <!-- X between signs -->
  <text x="600" y="290" text-anchor="middle" font-size="60" fill="#a78bfa" font-family="sans-serif">×</text>

  <!-- Sign 2 symbol -->
  <text x="900" y="300" text-anchor="middle" font-size="140" fill="#3D9970" filter="url(#glow)" font-family="serif">♍</text>
  <text x="900" y="370" text-anchor="middle" font-size="32" fill="white" font-family="sans-serif" font-weight="bold">Virgo</text>

  <!-- Score -->
  <text x="600" y="480" text-anchor="middle" font-size="80" fill="#F97316" font-family="sans-serif" font-weight="900" filter="url(#glow)">71%</text>

  <!-- Tier label -->
  <text x="600" y="530" text-anchor="middle" font-size="24" fill="#F97316" font-family="sans-serif" font-weight="bold" letter-spacing="6">VOLATILE</text>

  <!-- Branding -->
  <text x="600" y="600" text-anchor="middle" font-size="18" fill="#a78bfa" font-family="sans-serif" opacity="0.6">zodiac-toxicity.com</text>
</svg>