<svg width="1200" height="630" xmlns="http://www.w3.org/2000/svg">
  <defs>
    <linearGradient id="bg" x1="0%" y1="0%" x2="100%" y2="100%">
      <stop offset="0%" style="stop-color:#0f0c29"/>
      <stop offset="50%" style="stop-color:#302b63"/>
      <stop offset="100%" style="stop-color:#24243e"/>
    </linearGradient>
    <filter id="glow">
      <feGaussianBlur stdDeviation="4" result="blur"/>
      <feMerge>
        <feMergeNode in="blur"/>
        <feMergeNode in="SourceGraphic"/>
      </feMerge>
    </filter>
  </defs>

  <!-- Background -->
  <rect width="1200" height="630" fill="url(#bg)"/>

  <!-- Stars (decorative dots) -->
  <circle cx="693" cy="57" r="1.3643388314332112" fill="white" opacity="0.7095757802491021"/>
  <circle cx="664" cy="573" r="1.2873930134731875" fill="white" opacity="0.518495846110769"/>
  <circle cx="357" cy="50" r="1.5023431095853885" fill="white" opacity="0.6100549655823605"/>
  <circle cx="145" cy="541" r="0.5040760219148817" fill="white" opacity="0.6409376418965749"/>
  <circle cx="1081" cy="187" r="1.1245757492112283" fill="white" opacity="0.37013529665232753"/>
  <circle cx="837" cy="546" r="1.3917368570311792" fill="white" opacity="0.6316130600846193"/>
  <circle cx="50" cy="173" r="1.7034230539864839" fill="white" opacity="0.5279772756979062"/>
  <circle cx="1127" cy="450" r="1.9418162157321497" fill="white" opacity="0.6739154334489229"/>
  <circle cx="314" cy="50" r="0.5036255138927634" fill="white" opacity="0.463021521551419"/>
  <circle cx="438" cy="154" r="1.968102919934154" fill="white" opacity="0.5148904600349233"/>
  <circle cx="76" cy="417" r="1.8705924117494357" fill="white" opacity="0.7853725863817091"/>
  <circle cx="658" cy="342" r="0.8813402551098497" fill="white" opacity="0.4115822166689626"/>
  <circle cx="1111" cy="616" r="1.8531011242237172" fill="white" opacity="0.5523401150317742"/>
  <circle cx="582" cy="396" r="1.7751423750641784" fill="white" opacity="0.3847213463489086"/>
  <circle cx="926" cy="193" r="0.806269600541389" fill="white" opacity="0.3160041718895898"/>
  <circle cx="744" cy="126" r="1.3669429262881128" fill="white" opacity="0.668427819768723"/>
  <circle cx="52" cy="35" r="0.8480409823037098" fill="white" opacity="0.5749036385724414"/>
  <circle cx="67" cy="589" r="1.6570838945140642" fill="white" opacity="0.504405263641168"/>
  <circle cx="526" cy="130" r="1.0139117970264406" fill="white" opacity="0.5260446587807361"/>
  <circle cx="1078" cy="349" r="0.5351025038800474" fill="white" opacity="0.645194293326765"/>
  <circle cx="561" cy="12" r="0.8197583436043965" fill="white" opacity="0.34220856122161547"/>
  <circle cx="200" cy="487" r="1.2388106416779792" fill="white" opacity="0.37136497565330995"/>
  <circle cx="197" cy="348" r="0.7522057085529958" fill="white" opacity="0.7908750871639778"/>
  <circle cx="1047" cy="346" r="1.300556395558947" fill="white" opacity="0.3467552588638283"/>
  <circle cx="102" cy="368" r="1.9733042384350303" fill="white" opacity="0.7679234925091276"/>
  <circle cx="67" cy="443" r="1.6671865862507083" fill="white" opacity="0.7243356386131747"/>
  <circle cx="1095" cy="114" r="0.742842542721365" fill="white" opacity="0.4659049585229749"/>
  <circle cx="190" cy="125" r="1.6492541206857" fill="white" opacity="0.35009507730501377"/>
  <circle cx="182" cy="282" r="0.6738763965281145" fill="white" opacity="0.639298293640497"/>
  <circle cx="219" cy="42" r="0.5327705550763149" fill="white" opacity="0.5300431954480969"/>
  <circle cx="30" cy="195" r="0.8124039447016702" fill="white" opacity="0.5802993034868081"/>
  <circle cx="962" cy="373" r="1.712418481014642" fill="white" opacity="0.7867986217694503"/>
  <circle cx="989" cy="324" r="1.9853520410925225" fill="white" opacity="0.4973414484401456"/>
  <circle cx="462" cy="350" r="1.843781001068401" fill="white" opacity="0.30015636794822337"/>
  <circle cx="1038" cy="17" r="1.006364861346399" fill="white" opacity="0.6713960607158425"/>
  <circle cx="621" cy="579" r="1.7099226051457237" fill="white" opacity="0.3222857106829383"/>
  <circle cx="752" cy="241" r="0.9776435930751424" fill="white" opacity="0.7695121505877784"/>
  <circle cx="1078" cy="165" r="1.9466643320750676" fill="white" opacity="0.30570790270221837"/>
  <circle cx="193" cy="271" r="1.8479270868632294" fill="white" opacity="0.49523322106674383"/>
  <circle cx="782" cy="326" r="0.7822629938521705" fill="white" opacity="0.7022996708346017"/>

  <!-- Sign 1 symbol -->
  <text x="300" y="300" text-anchor="middle" font-size="140" fill="#3D9970" filter="url(#glow)" font-family="serif">♍</text>
  <text x="300" y="370" text-anchor="middle" font-size="32" fill="white" font-family="sans-serif" font-weight="bold">Virgo</text>

  <!-- X between signs -->
  <text x="600" y="290" text-anchor="middle" font-size="60" fill="#a78bfa" font-family="sans-serif">×</text>

  <!-- Sign 2 symbol -->
  <text x="900" y="300" text-anchor="middle" font-size="140" fill="#B10DC9" filter="url(#glow)" font-family="serif">♋</text>
  <text x="900" y="370" text-anchor="middle" font-size="32" fill="white" font-family="sans-serif" font-weight="bold">Cancer</text>

  <!-- Score -->
  <text x="600" y="480" text-anchor="middle" font-size="80" fill="#F97316" font-family="sans-serif" font-weight="900" filter="url(#glow)">79%</text>

  <!-- Tier label -->
  <text x="600" y="530" text-anchor="middle" font-size="24" fill="#F97316" font-family="sans-serif" font-weight="bold" letter-spacing="6">VOLATILE</text>

  <!-- Branding -->
  <text x="600" y="600" text-anchor="middle" font-size="18" fill="#a78bfa" font-family="sans-serif" opacity="0.6">zodiac-toxicity.com</text>
</svg>