<svg width="1200" height="630" xmlns="http://www.w3.org/2000/svg">
  <defs>
    <linearGradient id="bg" x1="0%" y1="0%" x2="100%" y2="100%">
      <stop offset="0%" style="stop-color:#0f0c29"/>
      <stop offset="50%" style="stop-color:#302b63"/>
      <stop offset="100%" style="stop-color:#24243e"/>
    </linearGradient>
    <filter id="glow">
      <feGaussianBlur stdDeviation="4" result="blur"/>
      <feMerge>
        <feMergeNode in="blur"/>
        <feMergeNode in="SourceGraphic"/>
      </feMerge>
    </filter>
  </defs>

  <!-- Background -->
  <rect width="1200" height="630" fill="url(#bg)"/>

  <!-- Stars (decorative dots) -->
  <circle cx="953" cy="240" r="1.9850977080399943" fill="white" opacity="0.33795394672593904"/>
  <circle cx="544" cy="540" r="0.5776631181762921" fill="white" opacity="0.6142831004490945"/>
  <circle cx="592" cy="109" r="1.3190471859434498" fill="white" opacity="0.6993906033592633"/>
  <circle cx="795" cy="602" r="0.8857892952387405" fill="white" opacity="0.7174375163339244"/>
  <circle cx="1183" cy="85" r="0.9690941376042865" fill="white" opacity="0.7925041531312981"/>
  <circle cx="928" cy="532" r="0.8591549641311529" fill="white" opacity="0.6521338890565164"/>
  <circle cx="243" cy="490" r="0.9412440803619848" fill="white" opacity="0.42248252024397986"/>
  <circle cx="473" cy="338" r="1.7049144742245357" fill="white" opacity="0.6032660408903425"/>
  <circle cx="1003" cy="120" r="0.6556763027347055" fill="white" opacity="0.7350360010089038"/>
  <circle cx="267" cy="226" r="0.893256571734486" fill="white" opacity="0.5319779642586695"/>
  <circle cx="1041" cy="180" r="1.4863192879659746" fill="white" opacity="0.7455878746620352"/>
  <circle cx="249" cy="70" r="1.4624099529915646" fill="white" opacity="0.6022234519353427"/>
  <circle cx="355" cy="306" r="1.1862194407410511" fill="white" opacity="0.44772977002524317"/>
  <circle cx="525" cy="465" r="0.6445704998663249" fill="white" opacity="0.5096332197488376"/>
  <circle cx="634" cy="169" r="0.6176772432746372" fill="white" opacity="0.478973200522466"/>
  <circle cx="917" cy="359" r="1.4506741080282244" fill="white" opacity="0.6550457073632562"/>
  <circle cx="559" cy="550" r="0.9289531496954753" fill="white" opacity="0.4175647179268606"/>
  <circle cx="387" cy="465" r="0.7676727934741718" fill="white" opacity="0.6178319451587657"/>
  <circle cx="1022" cy="512" r="0.6545935984363305" fill="white" opacity="0.45941861920734145"/>
  <circle cx="383" cy="107" r="0.6670108560714525" fill="white" opacity="0.4853445418588743"/>
  <circle cx="230" cy="10" r="1.7876645206214201" fill="white" opacity="0.3708783854809782"/>
  <circle cx="504" cy="628" r="1.7193644527941228" fill="white" opacity="0.3414047973209506"/>
  <circle cx="37" cy="530" r="1.9031951874185253" fill="white" opacity="0.5220617108312459"/>
  <circle cx="315" cy="302" r="0.915049760975626" fill="white" opacity="0.3024460696842965"/>
  <circle cx="181" cy="617" r="1.5743420872682405" fill="white" opacity="0.6586847172499546"/>
  <circle cx="722" cy="616" r="0.790054676478336" fill="white" opacity="0.5706979665462315"/>
  <circle cx="474" cy="0" r="1.8404805373866875" fill="white" opacity="0.7883752536490554"/>
  <circle cx="89" cy="236" r="1.0076653027717848" fill="white" opacity="0.7992016426166455"/>
  <circle cx="1119" cy="418" r="1.370170619634557" fill="white" opacity="0.46660210023385057"/>
  <circle cx="1136" cy="315" r="1.093645648729811" fill="white" opacity="0.6561862901072684"/>
  <circle cx="520" cy="489" r="1.3142298109574766" fill="white" opacity="0.7854937616531712"/>
  <circle cx="316" cy="622" r="1.6748634221330463" fill="white" opacity="0.5856782465437291"/>
  <circle cx="317" cy="223" r="1.159597649697453" fill="white" opacity="0.36383365646523097"/>
  <circle cx="72" cy="349" r="1.783455136280349" fill="white" opacity="0.4305680918136097"/>
  <circle cx="600" cy="52" r="1.6110148120063186" fill="white" opacity="0.582726300919385"/>
  <circle cx="359" cy="197" r="0.9785885755037053" fill="white" opacity="0.6029280665590275"/>
  <circle cx="389" cy="217" r="1.9739775552320502" fill="white" opacity="0.4431077669046163"/>
  <circle cx="686" cy="490" r="0.8840528275043018" fill="white" opacity="0.661866548552609"/>
  <circle cx="1126" cy="364" r="1.3579272529230086" fill="white" opacity="0.6163321391795646"/>
  <circle cx="707" cy="107" r="0.6556678393478917" fill="white" opacity="0.5328110501220213"/>

  <!-- Sign 1 symbol -->
  <text x="300" y="300" text-anchor="middle" font-size="140" fill="#3D9970" filter="url(#glow)" font-family="serif">♍</text>
  <text x="300" y="370" text-anchor="middle" font-size="32" fill="white" font-family="sans-serif" font-weight="bold">Virgo</text>

  <!-- X between signs -->
  <text x="600" y="290" text-anchor="middle" font-size="60" fill="#a78bfa" font-family="sans-serif">×</text>

  <!-- Sign 2 symbol -->
  <text x="900" y="300" text-anchor="middle" font-size="140" fill="#001F3F" filter="url(#glow)" font-family="serif">♑</text>
  <text x="900" y="370" text-anchor="middle" font-size="32" fill="white" font-family="sans-serif" font-weight="bold">Capricorn</text>

  <!-- Score -->
  <text x="600" y="480" text-anchor="middle" font-size="80" fill="#F97316" font-family="sans-serif" font-weight="900" filter="url(#glow)">76%</text>

  <!-- Tier label -->
  <text x="600" y="530" text-anchor="middle" font-size="24" fill="#F97316" font-family="sans-serif" font-weight="bold" letter-spacing="6">VOLATILE</text>

  <!-- Branding -->
  <text x="600" y="600" text-anchor="middle" font-size="18" fill="#a78bfa" font-family="sans-serif" opacity="0.6">zodiac-toxicity.com</text>
</svg>