<svg width="1200" height="630" xmlns="http://www.w3.org/2000/svg">
  <defs>
    <linearGradient id="bg" x1="0%" y1="0%" x2="100%" y2="100%">
      <stop offset="0%" style="stop-color:#0f0c29"/>
      <stop offset="50%" style="stop-color:#302b63"/>
      <stop offset="100%" style="stop-color:#24243e"/>
    </linearGradient>
    <filter id="glow">
      <feGaussianBlur stdDeviation="4" result="blur"/>
      <feMerge>
        <feMergeNode in="blur"/>
        <feMergeNode in="SourceGraphic"/>
      </feMerge>
    </filter>
  </defs>

  <!-- Background -->
  <rect width="1200" height="630" fill="url(#bg)"/>

  <!-- Stars (decorative dots) -->
  <circle cx="216" cy="15" r="0.8385466460567581" fill="white" opacity="0.7424995102983624"/>
  <circle cx="868" cy="296" r="1.436204380532701" fill="white" opacity="0.6228676474962438"/>
  <circle cx="248" cy="379" r="1.8637924694610644" fill="white" opacity="0.690360576397983"/>
  <circle cx="1190" cy="521" r="0.5345497437415685" fill="white" opacity="0.7831973987898367"/>
  <circle cx="1000" cy="199" r="0.9072240152353618" fill="white" opacity="0.5986941069132039"/>
  <circle cx="9" cy="249" r="1.3320982895184943" fill="white" opacity="0.38406375361148226"/>
  <circle cx="181" cy="276" r="1.6952006724304123" fill="white" opacity="0.3156643809134468"/>
  <circle cx="1163" cy="247" r="0.6390377659322164" fill="white" opacity="0.7424397688287647"/>
  <circle cx="1103" cy="122" r="1.3023288822757546" fill="white" opacity="0.4447856397067317"/>
  <circle cx="339" cy="210" r="1.9058349631385956" fill="white" opacity="0.46713082414700696"/>
  <circle cx="247" cy="356" r="0.5797829620903796" fill="white" opacity="0.45362458391788046"/>
  <circle cx="831" cy="299" r="1.3558537996418996" fill="white" opacity="0.35207579988284865"/>
  <circle cx="781" cy="270" r="0.6858285960826285" fill="white" opacity="0.7510698664655309"/>
  <circle cx="555" cy="424" r="1.7881644977731845" fill="white" opacity="0.3402708284338874"/>
  <circle cx="643" cy="375" r="1.5713772158935428" fill="white" opacity="0.3552371262821309"/>
  <circle cx="141" cy="337" r="1.4159890492224865" fill="white" opacity="0.34060477056514443"/>
  <circle cx="941" cy="542" r="1.5255245086305151" fill="white" opacity="0.3013731389970505"/>
  <circle cx="195" cy="302" r="1.379769522527443" fill="white" opacity="0.7012422044057727"/>
  <circle cx="239" cy="466" r="0.7498689843525495" fill="white" opacity="0.7926384936978628"/>
  <circle cx="916" cy="608" r="1.9634216077184101" fill="white" opacity="0.649624081893943"/>
  <circle cx="954" cy="495" r="1.1135409026955496" fill="white" opacity="0.37008460230701345"/>
  <circle cx="1199" cy="117" r="0.5899308691992845" fill="white" opacity="0.665956461949875"/>
  <circle cx="266" cy="216" r="1.555731389923457" fill="white" opacity="0.7123223537863284"/>
  <circle cx="507" cy="551" r="1.7437977811990724" fill="white" opacity="0.6468581153955519"/>
  <circle cx="649" cy="313" r="1.4650572509912834" fill="white" opacity="0.4912698583091574"/>
  <circle cx="356" cy="560" r="1.5035527976372691" fill="white" opacity="0.5147087542061702"/>
  <circle cx="565" cy="357" r="1.9338335003882385" fill="white" opacity="0.34029896514957103"/>
  <circle cx="685" cy="400" r="1.9671623932288327" fill="white" opacity="0.7304285954395316"/>
  <circle cx="122" cy="564" r="1.273800757303504" fill="white" opacity="0.3597768127868891"/>
  <circle cx="454" cy="199" r="1.3833953117105589" fill="white" opacity="0.5755204613894075"/>
  <circle cx="287" cy="150" r="1.7572899171356329" fill="white" opacity="0.6921943388528857"/>
  <circle cx="518" cy="205" r="1.2470231522294255" fill="white" opacity="0.3342571878820159"/>
  <circle cx="515" cy="282" r="1.2062584289082903" fill="white" opacity="0.542458847898341"/>
  <circle cx="663" cy="498" r="1.7594300926072979" fill="white" opacity="0.44038970214937606"/>
  <circle cx="250" cy="409" r="1.0057796425146635" fill="white" opacity="0.6082406180298947"/>
  <circle cx="172" cy="438" r="1.49525712372971" fill="white" opacity="0.7662399863235022"/>
  <circle cx="186" cy="603" r="0.8509005150035381" fill="white" opacity="0.3587321410387511"/>
  <circle cx="519" cy="31" r="1.5590145895461174" fill="white" opacity="0.6488037611626543"/>
  <circle cx="269" cy="196" r="0.9463836364430394" fill="white" opacity="0.3399875696009607"/>
  <circle cx="620" cy="3" r="0.9434488667174625" fill="white" opacity="0.6993332699635373"/>

  <!-- Sign 1 symbol -->
  <text x="300" y="300" text-anchor="middle" font-size="140" fill="#3D9970" filter="url(#glow)" font-family="serif">♍</text>
  <text x="300" y="370" text-anchor="middle" font-size="32" fill="white" font-family="sans-serif" font-weight="bold">Virgo</text>

  <!-- X between signs -->
  <text x="600" y="290" text-anchor="middle" font-size="60" fill="#a78bfa" font-family="sans-serif">×</text>

  <!-- Sign 2 symbol -->
  <text x="900" y="300" text-anchor="middle" font-size="140" fill="#FF851B" filter="url(#glow)" font-family="serif">♌</text>
  <text x="900" y="370" text-anchor="middle" font-size="32" fill="white" font-family="sans-serif" font-weight="bold">Leo</text>

  <!-- Score -->
  <text x="600" y="480" text-anchor="middle" font-size="80" fill="#EF4444" font-family="sans-serif" font-weight="900" filter="url(#glow)">87%</text>

  <!-- Tier label -->
  <text x="600" y="530" text-anchor="middle" font-size="24" fill="#EF4444" font-family="sans-serif" font-weight="bold" letter-spacing="6">CATASTROPHIC</text>

  <!-- Branding -->
  <text x="600" y="600" text-anchor="middle" font-size="18" fill="#a78bfa" font-family="sans-serif" opacity="0.6">zodiac-toxicity.com</text>
</svg>